<svg xmlns="http://www.w3.org/2000/svg" xmlns:xlink="http://www.w3.org/1999/xlink" width="350" zoomAndPan="magnify" viewBox="0 0 262.5 262.500001" height="350" preserveAspectRatio="xMidYMid meet" version="1.0"><defs><filter x="0%" y="0%" width="100%" height="100%" id="e23c03726b"><feColorMatrix values="0 0 0 0 1 0 0 0 0 1 0 0 0 0 1 0 0 0 1 0" color-interpolation-filters="sRGB"/></filter><clipPath id="be872b52e6"><path d="M 43 166 L 124 166 L 124 236.410156 L 43 236.410156 Z M 43 166 " clip-rule="nonzero"/></clipPath><clipPath id="91525e1a59"><path d="M 8.019531 148 L 96 148 L 96 216 L 8.019531 216 Z M 8.019531 148 " clip-rule="nonzero"/></clipPath><clipPath id="6f1911cb5b"><path d="M 97 26.410156 L 223 26.410156 L 223 151 L 97 151 Z M 97 26.410156 " clip-rule="nonzero"/></clipPath><clipPath id="a93839678b"><path d="M 97 26.410156 L 224 26.410156 L 224 152 L 97 152 Z M 97 26.410156 " clip-rule="nonzero"/></clipPath><mask id="025afae726"><g filter="url(#e23c03726b)"><rect x="-26.25" width="315" fill="#000000" y="-26.25" height="315.000001" fill-opacity="0.498"/></g></mask><clipPath id="b8ecc3f733"><rect x="0" width="21" y="0" height="23"/></clipPath><mask id="725cdd24f7"><g filter="url(#e23c03726b)"><rect x="-26.25" width="315" fill="#000000" y="-26.25" height="315.000001" fill-opacity="0.498"/></g></mask><clipPath id="239c5c2208"><rect x="0" width="11" y="0" height="11"/></clipPath></defs><path fill="#ffffff" d="M 68.351562 183.023438 C 68.351562 183.023438 65.039062 179.429688 60.988281 174.261719 C 60.195312 173.246094 59.375 172.175781 58.546875 171.054688 C 58.417969 170.878906 58.285156 170.703125 58.152344 170.527344 C 57.757812 169.988281 57.359375 169.4375 56.964844 168.890625 C 51.273438 160.917969 45.726562 151.289062 46.429688 144.789062 C 47.59375 134.175781 75.625 107.386719 91.292969 101.859375 C 95.425781 100.402344 101.183594 102.742188 106.859375 106.328125 C 106.894531 106.355469 106.9375 106.382812 106.972656 106.398438 C 111.128906 109.03125 115.234375 112.324219 118.589844 115.257812 C 118.886719 115.511719 119.179688 115.769531 119.460938 116.023438 C 120.035156 116.527344 120.570312 117.023438 121.089844 117.492188 C 121.488281 117.863281 121.875 118.214844 122.234375 118.550781 C 124.84375 120.980469 126.460938 122.675781 126.460938 122.675781 L 120.816406 128.539062 L 117.9375 131.523438 L 112.601562 137.070312 L 110.988281 138.75 Z M 68.351562 183.023438 " fill-opacity="1" fill-rule="nonzero"/><path fill="#371a45" d="M 120.824219 128.546875 L 117.953125 131.535156 L 78.566406 172.414062 L 68.351562 183.023438 C 68.351562 183.023438 68.28125 182.941406 68.148438 182.800781 C 68.113281 182.757812 68.070312 182.714844 68.027344 182.660156 C 67.992188 182.617188 67.945312 182.570312 67.902344 182.527344 C 67.867188 182.492188 67.839844 182.457031 67.804688 182.421875 C 67.796875 182.402344 67.777344 182.394531 67.769531 182.378906 C 67.707031 182.316406 67.648438 182.234375 67.578125 182.15625 C 67.558594 182.140625 67.550781 182.121094 67.53125 182.105469 C 67.480469 182.042969 67.417969 181.972656 67.355469 181.902344 C 67.269531 181.804688 67.179688 181.707031 67.09375 181.601562 C 67.03125 181.519531 66.960938 181.449219 66.890625 181.371094 C 66.820312 181.292969 66.75 181.203125 66.667969 181.125 C 66.574219 181.015625 66.476562 180.902344 66.378906 180.789062 C 66.175781 180.550781 65.957031 180.300781 65.734375 180.039062 C 65.53125 179.808594 65.320312 179.558594 65.109375 179.304688 C 64.863281 179.003906 64.597656 178.695312 64.328125 178.367188 C 63.332031 177.167969 62.195312 175.78125 60.996094 174.253906 C 60.769531 173.953125 60.53125 173.652344 60.292969 173.34375 C 60.125 173.128906 59.957031 172.910156 59.789062 172.6875 C 59.386719 172.160156 58.972656 171.601562 58.558594 171.046875 C 52.367188 162.71875 45.671875 151.882812 46.449219 144.78125 C 47.398438 136.039062 66.582031 116.335938 82.074219 106.558594 C 70.035156 116.660156 58.960938 129.476562 58.25 136.0625 C 57.898438 139.324219 59.304688 143.554688 61.550781 147.996094 C 62.511719 149.886719 65.164062 149.964844 66.273438 148.15625 C 66.28125 148.136719 66.289062 148.128906 66.300781 148.109375 C 68.34375 144.808594 71.0625 141.433594 74.773438 138.035156 C 82.726562 130.746094 95.195312 121.394531 112.34375 121.582031 C 112.742188 121.589844 116.414062 124.722656 120.824219 128.546875 Z M 120.824219 128.546875 " fill-opacity="0.349" fill-rule="nonzero"/><path fill="#371a45" d="M 68.324219 185.238281 L 128.578125 122.691406 L 127.5625 121.632812 C 127.316406 121.378906 121.453125 115.273438 114.070312 109.558594 C 103.855469 101.648438 96.023438 98.574219 90.792969 100.417969 C 74.4375 106.195312 46.140625 133.457031 44.921875 144.632812 C 43.453125 158.074219 66.265625 183.003906 67.234375 184.054688 Z M 124.359375 122.691406 L 68.394531 180.789062 C 63.886719 175.675781 46.789062 155.503906 47.945312 144.957031 C 48.4375 140.460938 54.929688 131.65625 64.476562 122.515625 C 74.269531 113.144531 84.742188 105.78125 91.804688 103.289062 C 99.953125 100.410156 117.164062 115.441406 124.359375 122.691406 Z M 124.359375 122.691406 " fill-opacity="1" fill-rule="nonzero"/><path fill="#ffffff" d="M 67.945312 125.773438 L 76.789062 136.699219 C 77.582031 137.671875 77.617188 139.058594 76.867188 140.074219 C 74.148438 143.773438 67.417969 152.003906 61.867188 151.203125 C 57.273438 150.53125 53.449219 145.980469 53.203125 141.433594 C 52.929688 136.347656 60.167969 128.953125 63.929688 125.484375 C 65.109375 124.398438 66.949219 124.539062 67.945312 125.773438 Z M 67.945312 125.773438 " fill-opacity="1" fill-rule="nonzero"/><path fill="#371a45" d="M 76.878906 140.074219 C 74.15625 143.78125 67.425781 152.003906 61.878906 151.191406 C 57.273438 150.523438 53.457031 145.972656 53.210938 141.425781 C 53.042969 138.296875 55.722656 134.296875 58.679688 130.871094 C 57.484375 132.875 56.832031 134.855469 56.8125 136.578125 C 56.671875 146.441406 66.167969 144.71875 66.167969 144.71875 C 66.167969 144.71875 65.367188 146.734375 65.789062 147.34375 C 67.542969 149.886719 74.039062 142.855469 77.328125 139.144531 C 77.238281 139.472656 77.089844 139.792969 76.878906 140.074219 Z M 76.878906 140.074219 " fill-opacity="0.349" fill-rule="nonzero"/><path fill="#371a45" d="M 62.644531 152.773438 C 68.519531 152.773438 74.78125 145.488281 78.101562 140.976562 C 79.253906 139.410156 79.203125 137.257812 77.976562 135.738281 L 69.136719 124.804688 C 68.394531 123.886719 67.292969 123.3125 66.125 123.230469 C 64.953125 123.152344 63.789062 123.558594 62.925781 124.351562 C 57.648438 129.226562 51.414062 136.160156 51.707031 141.503906 C 51.996094 146.917969 56.46875 151.933594 61.667969 152.695312 C 61.992188 152.757812 62.316406 152.773438 62.644531 152.773438 Z M 66.773438 126.730469 L 75.617188 137.664062 C 75.96875 138.105469 75.988281 138.722656 75.652344 139.171875 C 70.457031 146.238281 65.390625 150.167969 62.097656 149.691406 C 58.320312 149.144531 54.945312 145.320312 54.726562 141.34375 C 54.558594 138.191406 58.382812 132.683594 64.96875 126.597656 C 65.226562 126.359375 65.550781 126.242188 65.894531 126.269531 C 66.246094 126.296875 66.554688 126.464844 66.773438 126.730469 Z M 66.773438 126.730469 " fill-opacity="1" fill-rule="nonzero"/><path fill="#371a45" d="M 55.261719 148.621094 C 55.5625 148.710938 55.738281 148.746094 55.96875 148.78125 C 56.179688 148.816406 56.390625 148.84375 56.59375 148.851562 C 57.007812 148.886719 57.414062 148.886719 57.816406 148.871094 C 58.621094 148.816406 59.410156 148.703125 60.167969 148.480469 C 61.691406 148.066406 63.085938 147.359375 64.328125 146.496094 C 64.933594 146.042969 65.53125 145.59375 66.078125 145.082031 C 66.652344 144.59375 67.144531 144.066406 67.664062 143.542969 C 68.175781 143.015625 68.667969 142.46875 69.125 141.894531 C 69.59375 141.300781 70.023438 140.746094 70.402344 140.011719 C 70.492188 139.835938 70.421875 139.613281 70.246094 139.527344 C 70.078125 139.4375 69.875 139.5 69.777344 139.648438 L 69.75 139.695312 C 69.410156 140.222656 68.914062 140.773438 68.429688 141.265625 C 67.9375 141.769531 67.417969 142.246094 66.871094 142.707031 C 66.335938 143.15625 65.78125 143.632812 65.214844 144.03125 C 64.660156 144.453125 64.070312 144.816406 63.480469 145.167969 C 62.292969 145.839844 61.015625 146.328125 59.71875 146.546875 C 59.078125 146.671875 58.425781 146.699219 57.792969 146.679688 C 57.472656 146.671875 57.164062 146.636719 56.867188 146.574219 C 56.714844 146.546875 56.566406 146.511719 56.425781 146.476562 C 56.304688 146.441406 56.125 146.386719 56.082031 146.363281 C 55.492188 146.042969 54.753906 146.273438 54.445312 146.867188 C 54.136719 147.457031 54.355469 148.199219 54.945312 148.507812 C 55.015625 148.542969 55.085938 148.570312 55.15625 148.597656 Z M 55.261719 148.621094 " fill-opacity="1" fill-rule="nonzero"/><path fill="#371a45" d="M 107.234375 116.070312 C 106.222656 114.648438 105.183594 113.261719 104.117188 111.890625 C 103.050781 110.523438 101.96875 109.164062 100.832031 107.839844 C 99.707031 106.511719 98.550781 105.199219 97.308594 103.933594 C 96.078125 102.671875 94.792969 101.433594 93.320312 100.3125 C 92.652344 99.800781 91.699219 99.933594 91.1875 100.605469 C 90.679688 101.277344 90.808594 102.230469 91.480469 102.742188 C 91.507812 102.761719 91.53125 102.785156 91.566406 102.804688 L 91.578125 102.8125 C 92.914062 103.6875 94.203125 104.753906 95.460938 105.867188 C 96.71875 106.980469 97.9375 108.183594 99.125 109.390625 C 100.324219 110.609375 101.484375 111.867188 102.621094 113.136719 C 103.757812 114.410156 104.894531 115.707031 105.976562 117.023438 L 105.984375 117.03125 C 106.257812 117.367188 106.75 117.410156 107.085938 117.136719 C 107.414062 116.863281 107.472656 116.394531 107.234375 116.070312 Z M 107.234375 116.070312 " fill-opacity="1" fill-rule="nonzero"/><path fill="#ffffff" d="M 129.203125 124.574219 L 137.664062 136.957031 L 151.835938 157.675781 L 152.628906 158.832031 C 155.765625 159.546875 158.855469 160.085938 161.914062 160.476562 C 188.113281 163.785156 211.03125 155.167969 232.59375 136.707031 C 240.855469 134.535156 247.0625 131.878906 250.164062 127.746094 C 253.0625 123.886719 253.246094 118.738281 249.871094 111.484375 C 245.257812 101.578125 234.988281 103.105469 228.082031 105.144531 C 224.367188 106.25 215.621094 108.933594 210.476562 111.652344 C 208.203125 112.855469 205.773438 113.949219 203.226562 114.929688 C 183.816406 122.480469 157.472656 124.246094 142.007812 124.582031 C 134.230469 124.769531 129.203125 124.574219 129.203125 124.574219 Z M 129.203125 124.574219 " fill-opacity="1" fill-rule="nonzero"/><path fill="#371a45" d="M 223.046875 116.539062 C 223 116.644531 222.976562 116.882812 222.964844 117.207031 C 223.082031 116.667969 223.089844 116.421875 223.046875 116.539062 Z M 223.046875 116.539062 " fill-opacity="0.2471" fill-rule="nonzero"/><path fill="#371a45" d="M 137.675781 136.957031 L 151.847656 157.675781 L 152.636719 158.832031 C 155.773438 159.546875 158.867188 160.085938 161.921875 160.476562 C 188.125 163.785156 211.039062 155.167969 232.601562 136.707031 C 240.863281 134.535156 247.070312 131.878906 250.171875 127.746094 C 245.1875 130.121094 238.679688 132.082031 233.289062 129.898438 C 227.230469 127.445312 225.667969 118.605469 225.6875 115.9375 C 224.816406 120.21875 217.875 142.457031 185.886719 147.449219 C 166.40625 150.488281 144.933594 140.675781 137.675781 136.957031 Z M 137.675781 136.957031 " fill-opacity="0.2471" fill-rule="nonzero"/><path fill="#371a45" d="M 172.648438 162.675781 C 194.007812 162.675781 214.007812 154.539062 233.324219 138.09375 C 244.492188 135.109375 250.304688 131.621094 252.726562 126.4375 C 254.679688 122.261719 254.195312 117.164062 251.253906 110.839844 C 247.414062 102.601562 239.480469 100.191406 227.660156 103.6875 C 222.113281 105.328125 214.503906 107.8125 209.78125 110.3125 C 182.214844 124.890625 129.792969 123.074219 129.261719 123.054688 C 128.417969 123.027344 127.722656 123.683594 127.6875 124.519531 C 127.652344 125.359375 128.3125 126.066406 129.148438 126.101562 C 131.332031 126.179688 182.910156 127.972656 211.199219 113.011719 C 214.714844 111.160156 220.859375 108.878906 228.523438 106.621094 C 238.820312 103.574219 245.355469 105.375 248.507812 112.140625 C 251.042969 117.589844 251.527344 121.84375 249.976562 125.15625 C 247.980469 129.429688 242.5 132.550781 232.214844 135.25 L 231.878906 135.339844 L 231.613281 135.570312 C 206.988281 156.632812 181.273438 163.769531 152.972656 157.355469 C 152.152344 157.171875 151.34375 157.683594 151.160156 158.503906 C 150.972656 159.328125 151.484375 160.140625 152.304688 160.324219 C 159.226562 161.886719 166.007812 162.675781 172.648438 162.675781 Z M 172.648438 162.675781 " fill-opacity="1" fill-rule="nonzero"/><path fill="#371a45" d="M 200.136719 157.871094 C 200.746094 157.871094 201.324219 157.5 201.554688 156.890625 C 201.855469 156.101562 201.46875 155.230469 200.683594 154.929688 C 200.621094 154.902344 195.953125 153.039062 191.847656 147.917969 C 186.328125 141.027344 184.355469 131.796875 185.976562 120.492188 C 186.097656 119.664062 185.515625 118.886719 184.6875 118.773438 C 183.859375 118.648438 183.085938 119.230469 182.972656 120.0625 C 180.777344 135.332031 185.367188 144.746094 189.59375 149.964844 C 194.226562 155.671875 199.378906 157.691406 199.589844 157.773438 C 199.777344 157.835938 199.960938 157.871094 200.136719 157.871094 Z M 200.136719 157.871094 " fill-opacity="1" fill-rule="nonzero"/><path fill="#ffffff" d="M 205.421875 114.054688 C 207.09375 113.632812 209.21875 111.699219 209.753906 110.929688 C 210.855469 109.347656 212.398438 107.441406 214.203125 104.949219 C 217.292969 100.683594 224.515625 95.289062 227.871094 97.957031 C 233.226562 102.210938 224.277344 107.917969 224.164062 109.277344 C 224.050781 110.636719 226.875 117.402344 222.832031 123.875 Z M 205.421875 114.054688 " fill-opacity="1" fill-rule="nonzero"/><path fill="#371a45" d="M 205.792969 115.53125 C 206.628906 115.300781 207.269531 114.949219 207.871094 114.585938 C 208.460938 114.207031 208.996094 113.800781 209.507812 113.359375 C 209.761719 113.136719 210.011719 112.90625 210.257812 112.660156 C 210.503906 112.414062 210.75 112.148438 211.015625 111.777344 C 211.347656 111.300781 211.703125 110.824219 212.054688 110.347656 L 214.246094 107.441406 L 215.339844 105.957031 C 215.671875 105.488281 216.007812 105.074219 216.386719 104.640625 C 217.875 102.945312 219.65625 101.417969 221.558594 100.25 C 222.507812 99.675781 223.503906 99.191406 224.464844 98.945312 C 225.421875 98.6875 226.296875 98.714844 226.78125 99.050781 C 226.886719 99.113281 227.078125 99.289062 227.246094 99.4375 C 227.386719 99.597656 227.546875 99.75 227.652344 99.917969 C 227.871094 100.234375 227.984375 100.535156 228.019531 100.859375 C 228.101562 101.503906 227.757812 102.390625 227.167969 103.246094 C 226.585938 104.109375 225.820312 104.941406 225 105.78125 C 224.585938 106.203125 224.164062 106.621094 223.707031 107.113281 C 223.476562 107.371094 223.246094 107.609375 222.964844 108.03125 C 222.902344 108.113281 222.808594 108.304688 222.726562 108.464844 C 222.691406 108.519531 222.632812 108.722656 222.597656 108.863281 C 222.578125 108.941406 222.5625 109.023438 222.550781 109.101562 C 222.542969 109.179688 222.550781 109.1875 222.542969 109.234375 C 222.542969 109.382812 222.542969 109.535156 222.550781 109.683594 C 222.550781 109.773438 222.5625 109.808594 222.570312 109.851562 L 222.585938 109.992188 C 222.703125 110.742188 222.84375 111.28125 222.957031 111.867188 C 223.082031 112.4375 223.175781 113.003906 223.265625 113.5625 C 223.441406 114.683594 223.503906 115.796875 223.496094 116.898438 C 223.484375 119.125 223 121.28125 222.164062 123.460938 L 222.148438 123.515625 C 221.996094 123.910156 222.191406 124.351562 222.585938 124.503906 C 222.902344 124.628906 223.246094 124.519531 223.449219 124.273438 C 223.652344 124.027344 223.855469 123.769531 224.050781 123.503906 L 224.339844 123.109375 C 224.429688 122.96875 224.507812 122.824219 224.59375 122.683594 C 224.761719 122.402344 224.929688 122.117188 225.089844 121.828125 C 225.21875 121.527344 225.363281 121.226562 225.484375 120.917969 C 225.96875 119.691406 226.3125 118.382812 226.425781 117.066406 C 226.558594 115.75 226.507812 114.425781 226.367188 113.144531 C 226.304688 112.5 226.199219 111.867188 226.082031 111.246094 C 225.976562 110.636719 225.847656 109.992188 225.777344 109.542969 L 225.765625 109.464844 C 225.757812 109.4375 225.757812 109.402344 225.757812 109.410156 C 225.757812 109.410156 225.757812 109.402344 225.75 109.402344 C 225.75 109.410156 225.75 109.375 225.742188 109.417969 C 225.742188 109.464844 225.730469 109.507812 225.722656 109.550781 C 225.714844 109.632812 225.652344 109.746094 225.660156 109.738281 C 225.652344 109.761719 225.617188 109.816406 225.644531 109.773438 C 225.6875 109.703125 225.871094 109.480469 226.046875 109.285156 C 226.417969 108.878906 226.851562 108.449219 227.273438 107.996094 C 228.128906 107.085938 229 106.117188 229.746094 104.949219 C 230.117188 104.367188 230.46875 103.722656 230.726562 102.988281 C 230.980469 102.265625 231.140625 101.410156 231.042969 100.527344 C 230.953125 99.640625 230.59375 98.785156 230.109375 98.125 C 229.871094 97.777344 229.597656 97.496094 229.324219 97.222656 C 229.042969 96.976562 228.789062 96.726562 228.382812 96.472656 C 227.617188 95.96875 226.726562 95.765625 225.925781 95.730469 C 225.113281 95.695312 224.367188 95.816406 223.671875 95.996094 C 222.289062 96.367188 221.089844 96.964844 219.960938 97.644531 C 217.734375 99.015625 215.796875 100.691406 214.078125 102.636719 C 213.65625 103.121094 213.234375 103.652344 212.863281 104.164062 L 211.796875 105.613281 L 209.605469 108.519531 C 209.234375 109.011719 208.863281 109.507812 208.503906 110.027344 C 208.417969 110.152344 208.257812 110.335938 208.074219 110.515625 C 207.894531 110.699219 207.695312 110.875 207.492188 111.054688 C 207.085938 111.40625 206.65625 111.734375 206.222656 112.007812 C 205.792969 112.28125 205.351562 112.492188 205.015625 112.582031 L 204.964844 112.597656 C 204.152344 112.820312 203.675781 113.65625 203.898438 114.460938 C 204.144531 115.273438 204.980469 115.75 205.792969 115.53125 Z M 205.792969 115.53125 " fill-opacity="1" fill-rule="nonzero"/><path fill="#ffffff" d="M 48.191406 229.265625 C 52.585938 233.988281 60.59375 236.296875 67.417969 233.988281 C 77.195312 230.695312 81.246094 215.601562 81.246094 215.601562 C 114.46875 214.878906 122.304688 199.113281 122.304688 199.113281 L 111.878906 184.257812 L 100.585938 168.160156 C 95.691406 174.234375 89.769531 178.085938 83.773438 180.839844 C 73.019531 185.796875 62.027344 187.234375 56.355469 191.757812 C 52.613281 194.722656 49.898438 199.023438 48.042969 203.996094 C 46.121094 209.136719 45.136719 215.011719 44.886719 220.902344 C 44.765625 224.097656 46.050781 226.96875 48.191406 229.265625 Z M 48.191406 229.265625 " fill-opacity="1" fill-rule="nonzero"/><path fill="#371a45" d="M 48.050781 203.996094 C 51.695312 201.472656 56.515625 201.136719 62.652344 201.523438 C 75.742188 202.355469 84.214844 195.511719 84.214844 195.511719 L 83.78125 180.851562 C 73.027344 185.804688 62.035156 187.242188 56.363281 191.765625 C 52.621094 194.734375 49.898438 199.023438 48.050781 203.996094 Z M 48.050781 203.996094 " fill-opacity="0.2471" fill-rule="nonzero"/><path fill="#371a45" d="M 48.191406 229.265625 C 52.585938 233.988281 60.59375 236.296875 67.417969 233.988281 C 77.195312 230.695312 81.246094 215.601562 81.246094 215.601562 C 114.46875 214.878906 122.304688 199.113281 122.304688 199.113281 L 111.878906 184.257812 C 106.488281 189.257812 93.566406 201.152344 93.566406 201.152344 C 93.566406 201.152344 94.042969 206.699219 88.28125 209.773438 C 80.671875 213.828125 65.453125 208.785156 65.117188 208.667969 C 65.507812 208.941406 79.933594 219.082031 68 227.585938 C 60.355469 233.027344 50.851562 230.21875 48.191406 229.265625 Z M 48.191406 229.265625 " fill-opacity="0.2471" fill-rule="nonzero"/><g clip-path="url(#be872b52e6)"><path fill="#371a45" d="M 61.78125 236.410156 C 63.878906 236.410156 65.957031 236.09375 67.902344 235.429688 C 76.839844 232.417969 81.210938 220.761719 82.390625 217.085938 C 115.214844 216.035156 123.335938 200.457031 123.671875 199.785156 C 124.039062 199.035156 123.742188 198.117188 122.992188 197.746094 C 122.242188 197.375 121.335938 197.675781 120.957031 198.425781 C 120.851562 198.636719 112.890625 213.386719 81.21875 214.074219 C 80.539062 214.09375 79.960938 214.550781 79.785156 215.195312 C 79.75 215.335938 75.820312 229.546875 66.933594 232.542969 C 61.796875 234.273438 55.597656 233.230469 51.152344 229.882812 C 47.960938 227.480469 46.269531 224.308594 46.410156 220.953125 C 46.933594 208.238281 50.902344 198.027344 57.296875 192.941406 C 60.320312 190.539062 65.117188 189.011719 70.683594 187.242188 C 80.539062 184.109375 92.808594 180.214844 101.765625 169.105469 C 102.296875 168.449219 102.191406 167.496094 101.539062 166.964844 C 100.886719 166.4375 99.933594 166.542969 99.40625 167.195312 C 91.023438 177.601562 79.238281 181.34375 69.769531 184.347656 C 63.921875 186.203125 58.875 187.808594 55.414062 190.554688 C 45.707031 198.265625 43.707031 212.828125 43.382812 220.832031 C 43.207031 225.21875 45.3125 229.300781 49.328125 232.320312 C 52.875 234.996094 57.367188 236.410156 61.78125 236.410156 Z M 61.78125 236.410156 " fill-opacity="1" fill-rule="nonzero"/></g><path fill="#371a45" d="M 98.375 215.109375 C 99.210938 215.109375 99.890625 214.429688 99.890625 213.589844 C 99.890625 212.75 99.210938 212.070312 98.375 212.070312 C 91.707031 212.070312 81.710938 209.695312 75.503906 202.980469 C 71.441406 198.601562 69.636719 193.039062 70.121094 186.441406 C 70.183594 185.601562 69.558594 184.867188 68.722656 184.804688 C 67.882812 184.746094 67.152344 185.371094 67.09375 186.210938 C 66.535156 193.683594 68.617188 200.023438 73.273438 205.046875 C 80.152344 212.476562 91.09375 215.109375 98.375 215.109375 Z M 98.375 215.109375 " fill-opacity="1" fill-rule="nonzero"/><path fill="#371a45" d="M 64.503906 209.109375 C 64.660156 209.332031 64.777344 209.464844 64.917969 209.625 C 65.046875 209.773438 65.191406 209.921875 65.332031 210.066406 C 65.613281 210.347656 65.902344 210.613281 66.210938 210.867188 C 66.511719 211.125 66.828125 211.355469 67.136719 211.601562 C 67.453125 211.824219 67.769531 212.050781 68.097656 212.265625 C 69.398438 213.121094 70.78125 213.820312 72.199219 214.429688 C 73.609375 215.054688 75.070312 215.539062 76.542969 216 L 78.761719 216.601562 L 81 217.105469 C 81.816406 217.289062 82.628906 216.769531 82.8125 215.945312 C 83 215.125 82.480469 214.3125 81.660156 214.128906 C 81.617188 214.117188 81.582031 214.109375 81.535156 214.101562 L 81.472656 214.09375 L 79.324219 213.800781 L 77.195312 213.414062 C 75.785156 213.09375 74.375 212.757812 73.019531 212.289062 C 71.652344 211.839844 70.316406 211.300781 69.066406 210.621094 C 68.746094 210.453125 68.449219 210.269531 68.140625 210.089844 C 67.847656 209.898438 67.542969 209.710938 67.257812 209.507812 C 66.96875 209.304688 66.695312 209.09375 66.429688 208.871094 C 66.308594 208.757812 66.175781 208.644531 66.050781 208.527344 C 65.9375 208.421875 65.804688 208.28125 65.734375 208.203125 L 65.683594 208.148438 C 65.402344 207.839844 64.925781 207.8125 64.617188 208.085938 C 64.328125 208.359375 64.28125 208.800781 64.503906 209.109375 Z M 64.503906 209.109375 " fill-opacity="1" fill-rule="nonzero"/><path fill="#ffffff" d="M 78.023438 193.410156 C 111.164062 217.105469 145.582031 192.304688 160.996094 160.492188 C 161.683594 159.070312 162.335938 157.632812 162.941406 156.183594 C 165.410156 150.355469 167.222656 144.367188 168.273438 138.441406 L 141.65625 125.625 L 122.84375 116.5625 L 116.6875 113.597656 C 111.914062 118.886719 107.261719 122.957031 102.804688 126.347656 C 95.902344 131.605469 89.453125 135.269531 83.695312 139.445312 C 77.738281 143.757812 72.515625 148.597656 68.296875 156.28125 C 60.742188 170.066406 65.355469 184.355469 78.023438 193.410156 Z M 78.023438 193.410156 " fill-opacity="1" fill-rule="nonzero"/><path fill="#371a45" d="M 78.023438 193.410156 C 99.757812 208.953125 122.042969 203.625 139.144531 189.160156 C 122.851562 200.464844 102.824219 203.398438 83.234375 189.398438 C 70.570312 180.347656 65.957031 166.054688 73.511719 152.277344 C 76.664062 146.539062 80.363281 142.398438 84.523438 138.855469 C 84.238281 139.050781 83.96875 139.253906 83.683594 139.457031 C 77.730469 143.765625 72.507812 148.605469 68.289062 156.289062 C 60.742188 170.066406 65.355469 184.355469 78.023438 193.410156 Z M 78.023438 193.410156 " fill-opacity="0.2471" fill-rule="nonzero"/><path fill="#371a45" d="M 78.023438 194.9375 C 78.496094 194.9375 78.964844 194.714844 79.253906 194.300781 C 79.738281 193.621094 79.582031 192.667969 78.902344 192.179688 C 66.246094 183.136719 62.695312 169.667969 69.628906 157.039062 C 75.386719 146.539062 83.183594 141.453125 92.191406 135.5625 C 99.910156 130.519531 108.652344 124.804688 117.8125 114.648438 C 118.378906 114.019531 118.324219 113.058594 117.707031 112.5 C 117.082031 111.9375 116.132812 111.988281 115.566406 112.605469 C 106.671875 122.472656 98.101562 128.070312 90.539062 133.015625 C 81.183594 139.128906 73.097656 144.410156 66.96875 155.582031 C 59.351562 169.464844 63.339844 184.804688 77.140625 194.671875 C 77.40625 194.839844 77.714844 194.9375 78.023438 194.9375 Z M 78.023438 194.9375 " fill-opacity="1" fill-rule="nonzero"/><path fill="#371a45" d="M 161.972656 156.527344 C 159.042969 161.773438 156.066406 166.90625 152.65625 171.769531 C 150.949219 174.199219 149.125 176.53125 147.195312 178.773438 C 145.265625 181.015625 143.230469 183.164062 141.074219 185.175781 C 138.90625 187.183594 136.679688 189.105469 134.308594 190.839844 C 131.941406 192.578125 129.464844 194.160156 126.902344 195.570312 C 125.609375 196.261719 124.304688 196.921875 122.964844 197.507812 C 122.304688 197.816406 121.617188 198.082031 120.933594 198.355469 C 120.261719 198.628906 119.59375 198.859375 118.898438 199.085938 C 117.503906 199.539062 116.105469 199.980469 114.703125 200.410156 C 113.296875 200.84375 111.886719 201.269531 110.460938 201.761719 L 110.441406 201.773438 C 110.035156 201.914062 109.824219 202.347656 109.964844 202.753906 C 110.070312 203.0625 110.355469 203.253906 110.664062 203.273438 C 116.90625 203.566406 122.921875 201.199219 128.425781 198.441406 C 131.183594 197.03125 133.808594 195.367188 136.308594 193.558594 C 138.8125 191.746094 141.179688 189.761719 143.410156 187.632812 C 147.882812 183.394531 151.800781 178.617188 155.226562 173.527344 C 158.652344 168.449219 161.523438 162.964844 163.390625 157.136719 C 163.523438 156.730469 163.304688 156.304688 162.898438 156.175781 C 162.519531 156.058594 162.152344 156.21875 161.972656 156.527344 Z M 161.972656 156.527344 " fill-opacity="1" fill-rule="nonzero"/><path fill="#ffffff" d="M 11.3125 205.808594 C 14.847656 212.34375 23.300781 215.648438 31.332031 213.835938 C 41.707031 211.496094 47.46875 196.445312 47.46875 196.445312 C 66.511719 200.792969 78.980469 194.089844 78.980469 194.089844 C 78.980469 194.089844 83.535156 198.8125 94.34375 201.339844 L 91.292969 194.210938 L 72.339844 149.851562 C 58.636719 164.246094 37.570312 159.707031 25.882812 166.339844 C 20.042969 169.640625 10.167969 187.472656 9.640625 198.117188 C 9.484375 201.003906 10.117188 203.589844 11.3125 205.808594 Z M 11.3125 205.808594 " fill-opacity="1" fill-rule="nonzero"/><path fill="#371a45" d="M 11.3125 205.808594 C 14.847656 212.34375 23.300781 215.648438 31.332031 213.835938 C 41.707031 211.496094 47.46875 196.445312 47.46875 196.445312 C 66.511719 200.792969 78.980469 194.089844 78.980469 194.089844 C 78.980469 194.089844 83.535156 198.8125 94.34375 201.339844 L 91.292969 194.210938 C 80.671875 188.789062 77.148438 180.65625 76.261719 180.65625 C 75.378906 180.65625 73.511719 187.074219 63.691406 189.875 C 39.488281 196.765625 31.324219 180.972656 29.714844 181.167969 C 28.101562 181.363281 44.4375 199.097656 34.980469 206.433594 C 28.683594 211.320312 18.15625 209.226562 11.3125 205.808594 Z M 11.3125 205.808594 " fill-opacity="0.2471" fill-rule="nonzero"/><g clip-path="url(#91525e1a59)"><path fill="#371a45" d="M 71.242188 148.800781 C 69.285156 150.839844 67.058594 152.597656 64.625 154.046875 C 62.175781 155.457031 59.554688 156.605469 56.8125 157.453125 C 51.335938 159.203125 45.503906 159.925781 39.628906 160.855469 C 38.160156 161.085938 36.679688 161.332031 35.199219 161.632812 C 33.71875 161.921875 32.230469 162.269531 30.753906 162.710938 C 29.273438 163.152344 27.800781 163.679688 26.375 164.371094 L 25.316406 164.925781 C 25.152344 165.003906 24.949219 165.136719 24.761719 165.253906 C 24.570312 165.367188 24.394531 165.492188 24.226562 165.625 C 23.53125 166.128906 22.941406 166.683594 22.375 167.238281 C 20.164062 169.519531 18.429688 172.027344 16.820312 174.605469 C 15.226562 177.195312 13.816406 179.871094 12.554688 182.632812 C 11.304688 185.390625 10.214844 188.234375 9.367188 191.183594 C 8.953125 192.65625 8.601562 194.167969 8.371094 195.722656 C 8.320312 196.109375 8.277344 196.507812 8.222656 196.898438 L 8.136719 198.089844 C 8.125 198.496094 8.109375 198.902344 8.117188 199.308594 C 8.144531 199.714844 8.144531 200.121094 8.1875 200.527344 C 8.347656 202.152344 8.75 203.769531 9.394531 205.277344 C 10.039062 206.796875 10.945312 208.191406 12.011719 209.421875 C 14.152344 211.902344 16.988281 213.640625 20 214.691406 C 23.027344 215.726562 26.261719 216.054688 29.421875 215.691406 C 29.820312 215.636719 30.207031 215.574219 30.601562 215.523438 C 30.988281 215.445312 31.378906 215.371094 31.773438 215.285156 C 32.574219 215.082031 33.367188 214.84375 34.125 214.515625 C 35.640625 213.878906 37.023438 213.03125 38.28125 212.050781 C 40.800781 210.089844 42.808594 207.671875 44.542969 205.128906 C 45.40625 203.847656 46.191406 202.53125 46.914062 201.179688 C 47.273438 200.507812 47.617188 199.820312 47.953125 199.132812 C 48.289062 198.433594 48.585938 197.753906 48.894531 196.984375 L 47.144531 197.921875 L 49.167969 198.320312 L 50.179688 198.523438 C 50.515625 198.59375 50.859375 198.65625 51.195312 198.699219 L 53.238281 198.980469 C 53.582031 199.027344 53.914062 199.078125 54.257812 199.113281 L 55.289062 199.191406 L 57.351562 199.351562 L 59.410156 199.40625 L 60.441406 199.433594 L 61.472656 199.394531 C 62.160156 199.371094 62.847656 199.359375 63.542969 199.316406 C 66.300781 199.140625 69.039062 198.75 71.734375 198.132812 L 72.746094 197.894531 L 73.75 197.621094 C 74.417969 197.445312 75.082031 197.222656 75.75 197.019531 C 76.410156 196.800781 77.070312 196.570312 77.722656 196.304688 C 78.046875 196.171875 78.375 196.050781 78.699219 195.898438 C 79.035156 195.757812 79.335938 195.617188 79.714844 195.421875 L 77.90625 195.140625 C 78.109375 195.324219 78.242188 195.441406 78.402344 195.570312 C 78.558594 195.703125 78.707031 195.8125 78.867188 195.933594 C 79.175781 196.164062 79.492188 196.394531 79.808594 196.597656 C 80.445312 197.019531 81.085938 197.410156 81.738281 197.769531 C 83.050781 198.496094 84.398438 199.113281 85.761719 199.671875 C 87.128906 200.21875 88.527344 200.675781 89.929688 201.074219 C 90.625 201.285156 91.339844 201.4375 92.042969 201.621094 L 94.175781 202.074219 C 94.589844 202.160156 94.984375 201.894531 95.074219 201.488281 C 95.152344 201.101562 94.921875 200.722656 94.554688 200.605469 L 94.519531 200.597656 L 92.5 199.980469 C 91.839844 199.742188 91.171875 199.527344 90.519531 199.273438 C 89.207031 198.769531 87.929688 198.214844 86.6875 197.59375 C 85.457031 196.96875 84.25 196.277344 83.121094 195.511719 C 82.558594 195.121094 82.003906 194.722656 81.484375 194.300781 C 81.21875 194.097656 80.972656 193.875 80.726562 193.65625 C 80.609375 193.550781 80.480469 193.433594 80.375 193.328125 C 80.269531 193.222656 80.136719 193.089844 80.082031 193.027344 C 79.660156 192.523438 78.964844 192.402344 78.402344 192.683594 L 78.269531 192.746094 C 78.046875 192.859375 77.738281 193.003906 77.457031 193.125 C 77.175781 193.257812 76.875 193.375 76.585938 193.488281 C 75.996094 193.726562 75.386719 193.9375 74.78125 194.140625 C 74.164062 194.335938 73.554688 194.539062 72.929688 194.699219 L 71.996094 194.953125 L 71.054688 195.175781 C 68.527344 195.75 65.945312 196.121094 63.347656 196.277344 C 62.695312 196.324219 62.046875 196.324219 61.402344 196.347656 L 60.425781 196.375 L 59.445312 196.347656 L 57.492188 196.304688 L 55.546875 196.15625 L 54.566406 196.074219 C 54.242188 196.039062 53.925781 195.988281 53.597656 195.953125 L 51.660156 195.6875 C 51.335938 195.652344 51.019531 195.589844 50.691406 195.519531 L 49.730469 195.324219 L 47.8125 194.945312 L 47.777344 194.9375 C 47.039062 194.796875 46.324219 195.203125 46.058594 195.882812 C 45.8125 196.492188 45.511719 197.171875 45.214844 197.816406 C 44.90625 198.460938 44.589844 199.105469 44.246094 199.730469 C 43.566406 200.996094 42.828125 202.222656 42.035156 203.40625 C 40.433594 205.753906 38.589844 207.945312 36.425781 209.632812 C 35.339844 210.472656 34.179688 211.179688 32.964844 211.691406 C 32.355469 211.953125 31.730469 212.140625 31.097656 212.300781 C 30.769531 212.378906 30.425781 212.433594 30.089844 212.503906 L 29.078125 212.644531 C 26.359375 212.953125 23.566406 212.671875 20.984375 211.789062 C 18.421875 210.886719 16.042969 209.410156 14.300781 207.390625 C 12.53125 205.382812 11.457031 202.859375 11.207031 200.199219 C 11.078125 198.875 11.164062 197.523438 11.367188 196.128906 C 11.570312 194.742188 11.886719 193.355469 12.28125 191.96875 C 13.066406 189.214844 14.105469 186.492188 15.3125 183.851562 C 16.519531 181.210938 17.875 178.632812 19.398438 176.167969 C 20.921875 173.722656 22.597656 171.328125 24.527344 169.351562 C 25.011719 168.875 25.503906 168.40625 26.015625 168.042969 C 26.136719 167.945312 26.269531 167.859375 26.394531 167.789062 C 26.523438 167.707031 26.628906 167.628906 26.789062 167.550781 L 27.695312 167.074219 C 28.9375 166.472656 30.257812 165.996094 31.617188 165.589844 C 32.972656 165.183594 34.371094 164.855469 35.800781 164.574219 C 37.21875 164.289062 38.660156 164.042969 40.113281 163.8125 C 45.917969 162.894531 51.90625 162.160156 57.738281 160.308594 C 60.652344 159.40625 63.5 158.171875 66.175781 156.625 C 68.835938 155.042969 71.300781 153.101562 73.449219 150.855469 C 74.03125 150.246094 74.015625 149.285156 73.40625 148.703125 C 72.789062 148.164062 71.820312 148.191406 71.242188 148.800781 Z M 71.242188 148.800781 " fill-opacity="1" fill-rule="nonzero"/></g><path fill="#371a45" d="M 28.992188 181.386719 C 29.265625 182.476562 29.632812 183.453125 30.046875 184.445312 C 30.460938 185.433594 30.964844 186.378906 31.511719 187.304688 C 32.601562 189.160156 33.941406 190.882812 35.515625 192.402344 C 36.308594 193.152344 37.15625 193.867188 38.054688 194.503906 C 38.960938 195.128906 39.914062 195.703125 40.917969 196.171875 C 42.914062 197.125 45.082031 197.71875 47.257812 197.957031 C 48.09375 198.046875 48.84375 197.445312 48.929688 196.605469 C 49.019531 195.8125 48.480469 195.09375 47.714844 194.953125 L 47.679688 194.945312 C 45.804688 194.582031 43.980469 194.054688 42.253906 193.285156 C 41.390625 192.894531 40.5625 192.445312 39.746094 191.949219 C 38.941406 191.4375 38.160156 190.890625 37.417969 190.273438 C 35.941406 189.046875 34.609375 187.605469 33.429688 186.035156 C 32.839844 185.246094 32.3125 184.410156 31.800781 183.5625 C 31.296875 182.722656 30.832031 181.804688 30.453125 180.945312 L 30.433594 180.902344 C 30.269531 180.515625 29.820312 180.347656 29.429688 180.515625 C 29.070312 180.664062 28.902344 181.035156 28.992188 181.386719 Z M 28.992188 181.386719 " fill-opacity="1" fill-rule="nonzero"/><path fill="#ffffff" d="M 10.707031 95.121094 C 11.5625 101.390625 17.964844 105.71875 27.617188 109.753906 C 45.347656 129.765625 66.695312 137.414062 83.09375 139.058594 C 84.664062 139.21875 86.195312 139.324219 87.667969 139.375 C 88.476562 139.410156 89.269531 139.421875 90.054688 139.421875 L 104.796875 128.867188 L 123.8125 115.257812 L 128.488281 111.910156 C 128.488281 111.910156 114.140625 110.46875 96.90625 106.425781 C 81.589844 102.832031 64 97.179688 52.171875 88.65625 C 47.59375 85.351562 39.570312 81.609375 36.132812 80.054688 C 29.773438 77.164062 20.121094 74.320312 14.378906 83.222656 C 11.367188 87.90625 10.25 91.78125 10.707031 95.121094 Z M 10.707031 95.121094 " fill-opacity="1" fill-rule="nonzero"/><path fill="#371a45" d="M 10.707031 95.121094 C 11.5625 101.390625 17.964844 105.71875 27.617188 109.753906 C 47.046875 131.683594 70.828125 138.777344 87.667969 139.375 C 77.644531 136.195312 53.933594 127.601562 45.980469 115.230469 C 39.3125 104.863281 37.640625 99.640625 38.554688 87.152344 C 38.855469 83.011719 35.234375 105.53125 21.398438 100.871094 C 16.394531 99.175781 12.882812 97.46875 10.707031 95.121094 Z M 10.707031 95.121094 " fill-opacity="0.2471" fill-rule="nonzero"/><path fill="#371a45" d="M 128.636719 110.398438 C 125.398438 110.054688 122.121094 109.59375 118.863281 109.101562 C 115.601562 108.605469 112.351562 108.050781 109.113281 107.441406 C 102.640625 106.222656 96.199219 104.792969 89.851562 103.078125 C 86.671875 102.230469 83.519531 101.285156 80.398438 100.277344 C 77.273438 99.269531 74.191406 98.148438 71.144531 96.941406 C 68.097656 95.738281 65.117188 94.386719 62.210938 92.914062 C 60.75 92.1875 59.339844 91.375 57.921875 90.582031 L 55.855469 89.300781 C 55.15625 88.886719 54.515625 88.398438 53.835938 87.949219 L 52.824219 87.25 C 52.472656 87.003906 52.109375 86.746094 51.75 86.527344 C 51.035156 86.050781 50.304688 85.609375 49.574219 85.175781 C 48.113281 84.308594 46.640625 83.507812 45.152344 82.730469 C 42.167969 81.175781 39.179688 79.753906 36.097656 78.375 C 32.972656 77.023438 29.617188 75.902344 26.003906 75.71875 C 24.207031 75.636719 22.339844 75.8125 20.5625 76.40625 C 18.773438 76.972656 17.128906 77.96875 15.753906 79.222656 C 15.085938 79.859375 14.441406 80.53125 13.902344 81.261719 C 13.613281 81.617188 13.382812 82.003906 13.121094 82.375 L 12.433594 83.480469 C 11.542969 84.964844 10.742188 86.535156 10.132812 88.214844 C 9.527344 89.890625 9.09375 91.703125 9.09375 93.59375 C 9.078125 94.527344 9.199219 95.484375 9.402344 96.417969 C 9.613281 97.355469 9.96875 98.246094 10.371094 99.09375 C 11.234375 100.773438 12.414062 102.222656 13.726562 103.429688 C 15.039062 104.648438 16.457031 105.675781 17.921875 106.601562 C 20.851562 108.429688 23.925781 109.859375 27.027344 111.167969 L 26.480469 110.769531 L 29.535156 114.109375 L 30.304688 114.9375 C 30.566406 115.203125 30.839844 115.460938 31.113281 115.726562 L 34.371094 118.867188 L 36.089844 120.34375 C 37.242188 121.316406 38.371094 122.332031 39.605469 123.207031 C 44.386719 126.886719 49.53125 130.148438 55 132.726562 C 60.449219 135.332031 66.183594 137.355469 72.066406 138.722656 L 74.289062 139.183594 C 75.027344 139.332031 75.765625 139.492188 76.515625 139.597656 C 78.011719 139.800781 79.5 140.054688 81.007812 140.152344 L 83.261719 140.328125 L 85.527344 140.375 L 86.652344 140.382812 C 87.03125 140.375 87.410156 140.355469 87.78125 140.339844 C 88.527344 140.304688 89.285156 140.257812 90.035156 140.199219 C 90.457031 140.171875 90.765625 139.800781 90.738281 139.386719 C 90.714844 139.015625 90.429688 138.730469 90.078125 138.6875 L 90.042969 138.679688 C 89.3125 138.589844 88.582031 138.5 87.851562 138.429688 L 86.757812 138.324219 L 85.667969 138.175781 L 83.492188 137.890625 L 81.332031 137.539062 C 78.453125 137.078125 75.609375 136.445312 72.78125 135.773438 C 67.136719 134.359375 61.667969 132.300781 56.433594 129.765625 L 52.570312 127.753906 L 48.800781 125.554688 C 47.574219 124.777344 46.367188 123.957031 45.152344 123.160156 C 44.535156 122.773438 43.964844 122.320312 43.382812 121.890625 L 41.628906 120.582031 C 40.441406 119.742188 39.355469 118.761719 38.230469 117.835938 L 36.546875 116.441406 L 34.945312 114.949219 L 33.34375 113.453125 C 33.078125 113.207031 32.804688 112.960938 32.539062 112.703125 L 31.78125 111.910156 L 28.734375 108.757812 L 28.460938 108.472656 L 28.179688 108.359375 C 25.175781 107.097656 22.21875 105.71875 19.523438 104.03125 C 18.183594 103.183594 16.90625 102.257812 15.789062 101.214844 C 14.671875 100.171875 13.738281 98.996094 13.074219 97.726562 C 11.753906 95.171875 11.886719 92.136719 12.980469 89.265625 C 13.507812 87.824219 14.222656 86.421875 15.03125 85.0625 L 15.65625 84.046875 C 15.875 83.746094 16.070312 83.410156 16.308594 83.128906 C 16.75 82.519531 17.269531 81.988281 17.796875 81.484375 C 18.878906 80.503906 20.121094 79.753906 21.496094 79.3125 C 22.871094 78.851562 24.359375 78.710938 25.863281 78.773438 C 28.894531 78.914062 31.949219 79.902344 34.882812 81.175781 C 37.859375 82.507812 40.847656 83.929688 43.742188 85.441406 C 45.195312 86.199219 46.632812 86.976562 48.023438 87.808594 C 48.71875 88.222656 49.40625 88.648438 50.074219 89.078125 C 50.417969 89.292969 50.738281 89.519531 51.0625 89.75 L 52.101562 90.457031 C 52.804688 90.925781 53.492188 91.4375 54.214844 91.871094 L 56.375 93.203125 C 57.84375 94.035156 59.304688 94.875 60.820312 95.625 C 63.824219 97.152344 66.890625 98.539062 70.007812 99.765625 C 73.125 101.003906 76.269531 102.152344 79.449219 103.175781 C 82.628906 104.207031 85.824219 105.160156 89.050781 106.019531 C 95.488281 107.757812 102.003906 109.199219 108.546875 110.433594 C 111.824219 111.054688 115.101562 111.609375 118.394531 112.113281 C 121.6875 112.617188 124.972656 113.066406 128.320312 113.429688 C 129.15625 113.515625 129.90625 112.917969 129.996094 112.078125 C 130.082031 111.238281 129.484375 110.488281 128.648438 110.398438 Z M 128.636719 110.398438 " fill-opacity="1" fill-rule="nonzero"/><path fill="#371a45" d="M 96.976562 108.078125 C 97.898438 113.84375 99.617188 119.566406 102.191406 125.078125 C 102.390625 125.511719 102.601562 125.941406 102.816406 126.367188 C 103.371094 127.488281 103.949219 128.59375 104.566406 129.660156 C 114.28125 146.679688 130.777344 156.765625 148.015625 157.710938 C 149.035156 157.761719 150.066406 157.789062 151.089844 157.78125 C 151.132812 157.78125 151.167969 157.78125 151.210938 157.78125 C 153.996094 157.753906 156.785156 157.480469 159.5625 156.960938 C 160.699219 156.746094 161.824219 156.492188 162.953125 156.191406 C 165.417969 150.363281 167.234375 144.375 168.28125 138.449219 L 141.664062 125.632812 L 122.851562 116.574219 L 127.351562 113.359375 C 127.34375 113.347656 113.550781 111.972656 96.976562 108.078125 Z M 96.976562 108.078125 " fill-opacity="0.2471" fill-rule="nonzero"/><path fill="#ffffff" d="M 216.484375 113.695312 C 212.328125 122.96875 205.800781 131.25 197.222656 137.582031 C 195.46875 138.871094 193.636719 140.082031 191.726562 141.195312 C 190.792969 141.742188 189.839844 142.265625 188.863281 142.777344 C 185.921875 144.296875 182.910156 145.550781 179.863281 146.554688 C 177.230469 147.429688 174.570312 148.109375 171.890625 148.613281 C 168.660156 149.222656 165.410156 149.558594 162.175781 149.648438 C 160.996094 149.675781 159.816406 149.675781 158.644531 149.636719 C 137.136719 148.976562 116.570312 137.167969 105.863281 116.960938 C 90.070312 87.199219 101.652344 50.492188 131.703125 34.984375 C 137.488281 32 143.550781 30.011719 149.671875 28.980469 C 150.382812 28.855469 151.105469 28.742188 151.828125 28.652344 C 153.757812 28.398438 155.6875 28.21875 157.613281 28.148438 C 162.070312 27.972656 166.511719 28.28125 170.851562 29.050781 C 175.195312 29.808594 179.449219 31.039062 183.515625 32.6875 C 184.8125 33.210938 186.089844 33.785156 187.347656 34.394531 C 189.234375 35.3125 191.082031 36.328125 192.878906 37.449219 C 201.828125 42.988281 209.464844 50.882812 214.722656 60.800781 C 223.785156 77.925781 223.8125 97.335938 216.484375 113.695312 Z M 216.484375 113.695312 " fill-opacity="1" fill-rule="nonzero"/><path fill="#371a45" d="M 160.554688 149.824219 C 161.101562 149.824219 161.640625 149.816406 162.175781 149.804688 C 165.460938 149.71875 168.738281 149.363281 171.917969 148.765625 C 174.640625 148.25 177.324219 147.5625 179.90625 146.707031 C 182.988281 145.691406 186.027344 144.417969 188.933594 142.917969 C 190 142.359375 190.941406 141.839844 191.804688 141.335938 C 193.679688 140.242188 195.539062 139.023438 197.308594 137.714844 C 205.695312 131.535156 212.371094 123.25 216.625 113.765625 C 224.296875 96.648438 223.644531 77.324219 214.84375 60.730469 C 209.753906 51.128906 202.1875 43.039062 192.949219 37.316406 C 191.199219 36.230469 189.339844 35.199219 187.410156 34.253906 C 186.175781 33.652344 184.882812 33.070312 183.570312 32.539062 C 179.484375 30.878906 175.210938 29.652344 170.871094 28.890625 C 166.484375 28.113281 162.027344 27.8125 157.597656 27.992188 C 155.675781 28.070312 153.722656 28.238281 151.800781 28.496094 C 151.035156 28.589844 150.320312 28.699219 149.644531 28.820312 C 143.410156 29.878906 137.347656 31.902344 131.632812 34.84375 C 117.003906 42.394531 106.257812 55.148438 101.398438 70.746094 C 96.570312 86.21875 98.101562 102.664062 105.730469 117.03125 C 116.078125 136.558594 136.363281 149.109375 158.652344 149.789062 C 159.269531 149.816406 159.914062 149.824219 160.554688 149.824219 Z M 216.34375 113.632812 C 212.113281 123.074219 205.464844 131.304688 197.132812 137.460938 C 195.371094 138.757812 193.523438 139.976562 191.65625 141.0625 C 190.792969 141.566406 189.859375 142.085938 188.800781 142.636719 C 185.914062 144.128906 182.882812 145.398438 179.816406 146.40625 C 177.253906 147.253906 174.578125 147.953125 171.863281 148.453125 C 168.703125 149.054688 165.4375 149.398438 162.175781 149.488281 C 161.003906 149.515625 159.816406 149.515625 158.652344 149.480469 C 136.476562 148.800781 116.300781 136.3125 106.003906 116.882812 C 98.421875 102.582031 96.886719 86.226562 101.695312 70.832031 C 106.539062 55.316406 117.222656 42.632812 131.78125 35.117188 C 137.464844 32.195312 143.488281 30.171875 149.695312 29.121094 C 150.375 28.996094 151.078125 28.890625 151.847656 28.792969 C 153.765625 28.539062 155.703125 28.371094 157.613281 28.292969 C 162.019531 28.113281 166.457031 28.421875 170.816406 29.191406 C 175.140625 29.953125 179.386719 31.171875 183.457031 32.820312 C 184.757812 33.351562 186.054688 33.925781 187.277344 34.527344 C 189.199219 35.460938 191.046875 36.488281 192.792969 37.574219 C 201.988281 43.261719 209.515625 51.316406 214.582031 60.863281 C 223.328125 77.378906 223.96875 96.605469 216.34375 113.632812 Z M 216.34375 113.632812 " fill-opacity="1" fill-rule="nonzero"/><path fill="#371a45" d="M 105.851562 116.960938 C 116.5625 137.167969 137.128906 148.984375 158.644531 149.636719 C 159.816406 149.675781 160.996094 149.675781 162.175781 149.648438 C 165.417969 149.558594 168.667969 149.214844 171.890625 148.613281 C 174.570312 148.109375 177.230469 147.429688 179.863281 146.554688 C 182.917969 145.550781 185.921875 144.296875 188.871094 142.777344 C 189.839844 142.265625 190.800781 141.742188 191.734375 141.195312 C 193.644531 140.074219 195.476562 138.863281 197.230469 137.574219 C 205.808594 131.242188 212.335938 122.964844 216.492188 113.683594 C 218.773438 108.589844 220.351562 103.191406 221.152344 97.664062 C 216.976562 106.425781 210.660156 114.242188 202.480469 120.28125 C 200.726562 121.570312 198.902344 122.78125 196.984375 123.902344 C 196.058594 124.449219 195.097656 124.972656 194.121094 125.484375 C 191.179688 127.003906 188.167969 128.257812 185.121094 129.265625 C 182.488281 130.136719 179.828125 130.816406 177.148438 131.320312 C 173.917969 131.929688 170.667969 132.265625 167.433594 132.355469 C 166.253906 132.382812 165.074219 132.382812 163.902344 132.347656 C 142.394531 131.691406 121.832031 119.875 111.113281 99.667969 C 104.859375 87.878906 102.902344 75 104.683594 62.789062 C 96.753906 79.410156 96.535156 99.394531 105.851562 116.960938 Z M 105.851562 116.960938 " fill-opacity="0.2471" fill-rule="nonzero"/><g clip-path="url(#6f1911cb5b)"><path fill="#371a45" d="M 160.554688 150.875 C 161.109375 150.875 161.65625 150.867188 162.203125 150.855469 C 165.542969 150.769531 168.878906 150.40625 172.113281 149.796875 C 174.878906 149.277344 177.617188 148.570312 180.242188 147.703125 C 183.375 146.671875 186.460938 145.382812 189.417969 143.855469 C 190.5 143.289062 191.460938 142.757812 192.332031 142.246094 C 194.246094 141.132812 196.128906 139.886719 197.933594 138.5625 C 206.460938 132.277344 213.261719 123.851562 217.585938 114.195312 C 225.386719 96.789062 224.726562 77.121094 215.769531 60.234375 C 210.589844 50.476562 202.894531 42.234375 193.496094 36.425781 C 191.71875 35.320312 189.824219 34.269531 187.859375 33.316406 C 186.601562 32.699219 185.289062 32.113281 183.949219 31.578125 C 179.800781 29.890625 175.449219 28.644531 171.039062 27.867188 C 166.582031 27.082031 162.042969 26.773438 157.542969 26.949219 C 155.589844 27.027344 153.605469 27.195312 151.644531 27.460938 C 150.859375 27.558594 150.136719 27.671875 149.433594 27.796875 C 143.101562 28.863281 136.933594 30.933594 131.128906 33.917969 C 116.246094 41.601562 105.324219 54.566406 100.367188 70.4375 C 95.453125 86.183594 97.019531 102.910156 104.777344 117.535156 C 115.304688 137.390625 135.929688 150.160156 158.59375 150.855469 C 159.253906 150.867188 159.90625 150.875 160.554688 150.875 Z M 215.382812 113.199219 C 211.226562 122.472656 204.699219 130.5625 196.507812 136.613281 C 194.773438 137.890625 192.960938 139.085938 191.117188 140.152344 C 190.273438 140.648438 189.355469 141.160156 188.308594 141.707031 C 185.472656 143.171875 182.496094 144.417969 179.484375 145.40625 C 176.957031 146.246094 174.332031 146.925781 171.671875 147.421875 C 168.5625 148.003906 165.355469 148.347656 162.140625 148.4375 C 160.988281 148.464844 159.824219 148.464844 158.671875 148.429688 C 136.875 147.757812 117.039062 135.480469 106.917969 116.394531 C 99.46875 102.34375 97.960938 86.28125 102.683594 71.160156 C 107.4375 55.917969 117.9375 43.445312 132.25 36.070312 C 137.832031 33.191406 143.761719 31.214844 149.863281 30.179688 C 150.535156 30.058594 151.21875 29.960938 151.96875 29.863281 C 153.863281 29.605469 155.765625 29.4375 157.648438 29.367188 C 161.972656 29.199219 166.34375 29.492188 170.632812 30.25 C 174.878906 30.992188 179.0625 32.203125 183.050781 33.820312 C 184.335938 34.339844 185.605469 34.90625 186.8125 35.496094 C 188.695312 36.417969 190.519531 37.421875 192.226562 38.492188 C 201.265625 44.082031 208.671875 51.996094 213.640625 61.382812 C 222.242188 77.582031 222.878906 96.472656 215.382812 113.199219 Z M 215.382812 113.199219 " fill-opacity="1" fill-rule="nonzero"/></g><g clip-path="url(#a93839678b)"><path fill="#371a45" d="M 160.554688 151.226562 C 161.109375 151.226562 161.667969 151.21875 162.210938 151.210938 C 165.578125 151.121094 168.921875 150.761719 172.183594 150.152344 C 174.964844 149.628906 177.714844 148.914062 180.355469 148.039062 C 183.5 147.007812 186.609375 145.699219 189.585938 144.164062 C 190.679688 143.589844 191.636719 143.058594 192.519531 142.546875 C 194.4375 141.425781 196.332031 140.179688 198.148438 138.847656 C 206.726562 132.523438 213.558594 124.042969 217.910156 114.339844 C 225.757812 96.824219 225.097656 77.050781 216.085938 60.066406 C 210.882812 50.253906 203.140625 41.972656 193.691406 36.125 C 191.902344 35.011719 190 33.960938 188.027344 33 C 186.757812 32.378906 185.4375 31.789062 184.097656 31.25 C 179.925781 29.554688 175.554688 28.300781 171.117188 27.515625 C 166.632812 26.71875 162.070312 26.410156 157.554688 26.585938 C 155.589844 26.664062 153.589844 26.84375 151.625 27.109375 C 150.84375 27.203125 150.109375 27.320312 149.40625 27.441406 C 143.039062 28.519531 136.847656 30.597656 131.007812 33.597656 C 116.035156 41.328125 105.050781 54.371094 100.066406 70.328125 C 95.125 86.164062 96.703125 102.988281 104.496094 117.703125 C 115.082031 137.671875 135.816406 150.511719 158.609375 151.210938 C 159.242188 151.21875 159.90625 151.226562 160.554688 151.226562 Z M 215.066406 113.046875 C 210.933594 122.269531 204.445312 130.316406 196.296875 136.320312 C 194.570312 137.59375 192.773438 138.777344 190.941406 139.84375 C 190.097656 140.339844 189.1875 140.84375 188.148438 141.390625 C 185.332031 142.847656 182.371094 144.082031 179.378906 145.074219 C 176.867188 145.902344 174.253906 146.582031 171.609375 147.078125 C 168.519531 147.660156 165.328125 148.003906 162.140625 148.085938 C 160.996094 148.109375 159.835938 148.109375 158.699219 148.074219 C 137.023438 147.414062 117.304688 135.207031 107.246094 116.226562 C 99.839844 102.265625 98.339844 86.289062 103.035156 71.257812 C 107.765625 56.101562 118.203125 43.710938 132.425781 36.371094 C 137.972656 33.511719 143.867188 31.542969 149.933594 30.515625 C 150.605469 30.394531 151.28125 30.296875 152.03125 30.199219 C 153.914062 29.941406 155.808594 29.773438 157.675781 29.703125 C 161.972656 29.535156 166.316406 29.828125 170.578125 30.585938 C 174.808594 31.328125 178.957031 32.519531 182.925781 34.136719 C 184.203125 34.660156 185.464844 35.214844 186.660156 35.808594 C 188.539062 36.726562 190.351562 37.722656 192.050781 38.78125 C 201.035156 44.347656 208.398438 52.214844 213.339844 61.542969 C 221.882812 77.652344 222.507812 96.425781 215.066406 113.046875 Z M 215.066406 113.046875 " fill-opacity="1" fill-rule="nonzero"/></g><path fill="#371a45" d="M 208.320312 126.984375 C 174.429688 154.511719 124.15625 140.542969 118.113281 97.921875 C 114 68.925781 139.53125 42.652344 167.945312 40.621094 C 188.625 39.144531 209.5 46.644531 220.695312 77.75 C 220.695312 77.75 223.503906 92.269531 220.28125 102.328125 C 217.054688 112.386719 212.203125 121.617188 212.203125 121.617188 Z M 208.320312 126.984375 " fill-opacity="1" fill-rule="nonzero"/><path fill="#220f2d" d="M 118.113281 97.921875 C 124.15625 140.542969 174.429688 154.511719 208.320312 126.984375 L 209.101562 125.898438 C 170.164062 135.871094 128.910156 115.476562 121.988281 72.492188 C 118.394531 80.285156 116.84375 88.972656 118.113281 97.921875 Z M 118.113281 97.921875 " fill-opacity="1" fill-rule="nonzero"/><path fill="#371a45" d="M 169.230469 148.984375 C 172.84375 148.984375 176.480469 148.695312 180.117188 148.101562 L 180.355469 148.046875 C 183.507812 147.015625 186.617188 145.707031 189.585938 144.171875 C 190.679688 143.597656 191.636719 143.066406 192.519531 142.554688 C 194.4375 141.433594 196.332031 140.1875 198.148438 138.855469 C 206.726562 132.53125 213.558594 124.054688 217.910156 114.347656 C 225.757812 96.832031 225.097656 77.058594 216.085938 60.078125 C 210.882812 50.265625 203.140625 41.980469 193.691406 36.132812 L 193.558594 36.046875 L 193.40625 35.992188 C 185.78125 33.21875 177.105469 32.152344 167.621094 32.832031 C 150.542969 34.050781 133.683594 43.058594 122.527344 56.914062 C 112.476562 69.394531 108.089844 84.347656 110.167969 99.023438 C 112.433594 114.992188 120.140625 128.238281 132.460938 137.328125 C 142.773438 144.921875 155.765625 148.984375 169.230469 148.984375 Z M 179.492188 145.039062 C 163.15625 147.667969 146.695312 143.933594 134.300781 134.800781 C 122.675781 126.226562 115.390625 113.703125 113.25 98.574219 C 111.296875 84.769531 115.445312 70.664062 124.949219 58.867188 C 135.570312 45.671875 151.609375 37.097656 167.839844 35.9375 C 176.824219 35.292969 185.015625 36.285156 192.191406 38.863281 C 201.113281 44.417969 208.425781 52.25 213.339844 61.535156 C 221.890625 77.652344 222.515625 96.425781 215.074219 113.058594 C 210.945312 122.277344 204.453125 130.324219 196.304688 136.328125 C 194.578125 137.601562 192.78125 138.785156 190.949219 139.851562 C 190.105469 140.347656 189.199219 140.851562 188.160156 141.398438 C 185.359375 142.828125 182.441406 144.058594 179.492188 145.039062 Z M 179.492188 145.039062 " fill-opacity="1" fill-rule="nonzero"/><path fill="#371a45" d="M 169.207031 142.765625 C 183.28125 142.765625 197.53125 137.75 209.296875 128.195312 L 209.457031 128.0625 L 213.578125 122.332031 C 213.78125 121.949219 218.535156 112.863281 221.757812 102.796875 C 225.070312 92.480469 222.339844 78.046875 222.226562 77.449219 L 222.164062 77.21875 C 212.371094 50.015625 194.105469 37.183594 167.839844 39.058594 C 152.601562 40.144531 137.558594 48.179688 127.597656 60.542969 C 118.632812 71.679688 114.714844 85.035156 116.570312 98.140625 C 119.265625 117.128906 130.824219 131.964844 148.296875 138.847656 C 154.980469 141.488281 162.070312 142.765625 169.207031 142.765625 Z M 207.175781 125.898438 C 190.335938 139.492188 168.21875 143.339844 149.433594 135.941406 C 133.042969 129.484375 122.183594 115.546875 119.65625 97.699219 C 117.917969 85.46875 121.601562 72.96875 130.019531 62.515625 C 139.445312 50.8125 153.660156 43.207031 168.050781 42.175781 C 192.710938 40.40625 209.914062 52.515625 219.179688 78.15625 C 219.425781 79.523438 221.707031 92.753906 218.792969 101.839844 C 215.8125 111.113281 211.382812 119.789062 210.863281 120.785156 Z M 207.175781 125.898438 " fill-opacity="1" fill-rule="nonzero"/><path fill="#ffffff" d="M 90.722656 97.320312 C 90.953125 109.304688 98.296875 119.25 107.140625 119.511719 C 115.980469 119.789062 122.957031 110.292969 122.738281 98.300781 C 122.738281 98.21875 122.738281 98.140625 122.726562 98.070312 C 122.410156 86.183594 115.101562 76.371094 106.320312 76.105469 C 99.496094 75.894531 93.769531 81.511719 91.628906 89.609375 C 90.996094 91.992188 90.667969 94.589844 90.722656 97.320312 Z M 90.722656 97.320312 " fill-opacity="1" fill-rule="nonzero"/><path fill="#371a45" d="M 90.722656 97.320312 C 90.953125 109.304688 98.296875 119.25 107.140625 119.511719 C 115.980469 119.789062 122.957031 110.292969 122.738281 98.300781 C 122.738281 98.21875 122.738281 98.140625 122.726562 98.070312 C 121.777344 99.269531 120.289062 100.4375 118.238281 99.960938 C 114.632812 99.128906 108.046875 91.226562 108.046875 91.226562 C 108.046875 91.226562 100.929688 90.476562 91.628906 89.601562 C 90.996094 91.992188 90.667969 94.589844 90.722656 97.320312 Z M 90.722656 97.320312 " fill-opacity="0.2471" fill-rule="nonzero"/><path fill="#371a45" d="M 107.507812 121.085938 C 111.242188 121.085938 114.738281 119.566406 117.65625 116.679688 C 122.007812 112.367188 124.429688 105.65625 124.289062 98.273438 C 124.050781 85.484375 116 74.84375 106.363281 74.542969 C 102.480469 74.429688 98.816406 75.945312 95.796875 78.941406 C 91.445312 83.25 89.023438 89.960938 89.164062 97.347656 C 89.402344 110.132812 97.449219 120.777344 107.085938 121.078125 C 107.226562 121.078125 107.367188 121.085938 107.507812 121.085938 Z M 105.941406 77.660156 C 106.046875 77.660156 106.152344 77.660156 106.265625 77.667969 C 114.273438 77.917969 120.957031 87.179688 121.167969 98.335938 C 121.292969 104.765625 119.160156 110.796875 115.460938 114.453125 C 113.058594 116.835938 110.195312 118.046875 107.175781 117.949219 C 99.167969 117.703125 92.484375 108.429688 92.273438 97.285156 C 92.148438 90.855469 94.28125 84.824219 97.980469 81.167969 C 100.296875 78.871094 103.042969 77.660156 105.941406 77.660156 Z M 90.722656 97.320312 Z M 90.722656 97.320312 " fill-opacity="1" fill-rule="nonzero"/><path fill="#ffffff" d="M 99.628906 82.5625 C 98.78125 82.660156 97.953125 82.867188 97.144531 83.183594 C 96.339844 83.5 95.566406 83.917969 94.832031 84.4375 C 94.097656 84.960938 93.414062 85.574219 92.78125 86.28125 C 92.148438 86.988281 91.578125 87.773438 91.070312 88.640625 C 90.558594 89.507812 90.125 90.433594 89.761719 91.425781 C 89.398438 92.414062 89.113281 93.449219 88.90625 94.527344 C 88.703125 95.605469 88.582031 96.703125 88.542969 97.828125 C 88.503906 98.949219 88.550781 100.074219 88.679688 101.199219 C 88.808594 102.328125 89.019531 103.433594 89.3125 104.515625 C 89.605469 105.601562 89.972656 106.644531 90.417969 107.648438 C 90.863281 108.648438 91.375 109.589844 91.953125 110.472656 C 92.53125 111.355469 93.167969 112.15625 93.859375 112.882812 C 94.550781 113.609375 95.285156 114.246094 96.0625 114.789062 C 96.839844 115.332031 97.648438 115.777344 98.480469 116.117188 C 99.3125 116.457031 100.160156 116.6875 101.015625 116.808594 C 101.875 116.933594 102.726562 116.945312 103.574219 116.847656 C 104.425781 116.75 105.253906 116.542969 106.058594 116.226562 C 106.867188 115.910156 107.636719 115.492188 108.371094 114.96875 C 109.105469 114.449219 109.789062 113.835938 110.421875 113.128906 C 111.054688 112.421875 111.628906 111.632812 112.136719 110.769531 C 112.644531 109.902344 113.078125 108.976562 113.445312 107.984375 C 113.808594 106.996094 114.089844 105.960938 114.296875 104.882812 C 114.5 103.804688 114.625 102.703125 114.660156 101.582031 C 114.699219 100.457031 114.65625 99.335938 114.523438 98.207031 C 114.394531 97.082031 114.183594 95.976562 113.890625 94.894531 C 113.597656 93.808594 113.230469 92.765625 112.785156 91.761719 C 112.339844 90.757812 111.828125 89.816406 111.25 88.9375 C 110.671875 88.054688 110.035156 87.25 109.34375 86.523438 C 108.652344 85.796875 107.917969 85.164062 107.140625 84.621094 C 106.363281 84.074219 105.558594 83.632812 104.722656 83.292969 C 103.890625 82.953125 103.042969 82.722656 102.1875 82.597656 C 101.328125 82.476562 100.476562 82.464844 99.628906 82.5625 Z M 99.628906 82.5625 " fill-opacity="1" fill-rule="nonzero"/><path fill="#371a45" d="M 102.460938 117.085938 C 104.117188 117.085938 105.757812 116.667969 107.296875 115.832031 C 113.878906 112.28125 116.6875 102.160156 113.570312 93.273438 C 111.824219 88.320312 108.558594 84.601562 104.601562 83.066406 C 101.660156 81.925781 98.65625 82.101562 95.917969 83.578125 C 89.339844 87.128906 86.53125 97.25 89.648438 106.132812 L 89.796875 106.082031 L 89.648438 106.132812 C 91.390625 111.089844 94.660156 114.804688 98.613281 116.34375 C 99.898438 116.835938 101.183594 117.085938 102.460938 117.085938 Z M 100.761719 82.640625 C 101.996094 82.640625 103.246094 82.878906 104.488281 83.367188 C 108.363281 84.867188 111.5625 88.523438 113.269531 93.378906 C 116.34375 102.125 113.59375 112.058594 107.148438 115.539062 C 104.496094 116.96875 101.589844 117.136719 98.738281 116.035156 C 94.863281 114.53125 91.664062 110.875 89.957031 106.019531 C 86.882812 97.277344 89.628906 87.339844 96.078125 83.859375 C 97.574219 83.046875 99.152344 82.640625 100.761719 82.640625 Z M 100.761719 82.640625 " fill-opacity="1" fill-rule="nonzero"/><path fill="#371a45" d="M 114.042969 106.8125 C 114.792969 103.632812 114.652344 100.234375 113.816406 97.054688 C 111.5 104.164062 105.042969 107.148438 98.851562 103.722656 C 94.84375 101.503906 91.867188 97.117188 90.582031 92.195312 C 90.429688 92.648438 90.308594 93.117188 90.195312 93.601562 C 88.300781 101.699219 92.105469 111.230469 98.691406 114.878906 C 105.273438 118.523438 112.152344 114.914062 114.042969 106.8125 Z M 114.042969 106.8125 " fill-opacity="0.2471" fill-rule="nonzero"/><path fill="#371a45" d="M 102.269531 118.515625 C 105.015625 118.515625 107.605469 117.386719 109.78125 115.238281 C 113.304688 111.757812 115.320312 105.949219 115.171875 99.6875 C 114.933594 89.125 108.652344 80.292969 101.183594 80 C 98.296875 79.894531 95.558594 81.015625 93.277344 83.269531 C 89.753906 86.738281 87.738281 92.558594 87.886719 98.820312 C 88.125 109.382812 94.402344 118.214844 101.871094 118.507812 C 102.011719 118.515625 102.136719 118.515625 102.269531 118.515625 Z M 100.808594 83.117188 C 100.894531 83.117188 100.984375 83.117188 101.070312 83.128906 C 106.929688 83.355469 111.859375 90.820312 112.0625 99.765625 C 112.1875 105.179688 110.519531 110.132812 107.597656 113.023438 C 105.941406 114.65625 104.003906 115.476562 101.996094 115.398438 C 96.140625 115.167969 91.207031 107.707031 91.003906 98.757812 C 90.878906 93.34375 92.546875 88.390625 95.46875 85.503906 C 97.054688 83.929688 98.894531 83.117188 100.808594 83.117188 Z M 89.453125 98.785156 Z M 89.453125 98.785156 " fill-opacity="1" fill-rule="nonzero"/><path fill="#ffffff" d="M 154.164062 52.320312 C 154.164062 52.320312 182.089844 52.09375 198.585938 66.816406 C 198.605469 66.832031 198.621094 66.851562 198.640625 66.859375 C 202.109375 69.957031 204.671875 73.933594 206.082031 78.339844 C 207.949219 84.167969 208.371094 88.453125 208.601562 92.234375 C 209.289062 103.738281 207.429688 109.25 207.429688 109.25 C 213.691406 102.804688 217.011719 95.695312 216.535156 86.101562 C 216.484375 85.160156 216.40625 84.1875 216.28125 83.1875 C 216.253906 82.960938 216.21875 82.730469 216.183594 82.5 C 216.191406 82.5 216.183594 82.492188 216.183594 82.480469 C 215.796875 80.476562 215.1875 77.871094 214.253906 74.984375 C 211.4375 66.265625 205.675781 55.015625 194.140625 50.273438 C 172.5625 41.433594 153.132812 51.175781 154.164062 52.320312 Z M 154.164062 52.320312 " fill-opacity="0.498" fill-rule="nonzero"/><g mask="url(#025afae726)"><g transform="matrix(1, 0, 0, 1, 125, 70)"><g clip-path="url(#b8ecc3f733)"><path fill="#ffffff" d="M 2.109375 10.058594 C 1.976562 10.667969 1.898438 11.277344 1.871094 11.898438 C 1.84375 12.515625 1.871094 13.128906 1.949219 13.730469 C 2.03125 14.335938 2.164062 14.925781 2.347656 15.492188 C 2.53125 16.0625 2.761719 16.601562 3.039062 17.113281 C 3.320312 17.625 3.644531 18.097656 4.007812 18.527344 C 4.375 18.960938 4.773438 19.347656 5.210938 19.6875 C 5.648438 20.023438 6.113281 20.308594 6.601562 20.542969 C 7.09375 20.773438 7.605469 20.945312 8.132812 21.0625 C 8.660156 21.175781 9.195312 21.230469 9.734375 21.226562 C 10.277344 21.21875 10.820312 21.152344 11.355469 21.027344 C 11.894531 20.902344 12.417969 20.714844 12.929688 20.472656 C 13.441406 20.234375 13.929688 19.9375 14.398438 19.589844 C 14.863281 19.242188 15.296875 18.847656 15.699219 18.40625 C 16.101562 17.964844 16.464844 17.484375 16.789062 16.96875 C 17.113281 16.449219 17.390625 15.90625 17.621094 15.332031 C 17.851562 14.757812 18.035156 14.167969 18.167969 13.558594 C 18.296875 12.953125 18.378906 12.339844 18.402344 11.722656 C 18.429688 11.105469 18.402344 10.492188 18.324219 9.886719 C 18.242188 9.28125 18.113281 8.695312 17.929688 8.125 C 17.746094 7.554688 17.511719 7.015625 17.234375 6.503906 C 16.953125 5.996094 16.632812 5.523438 16.265625 5.089844 C 15.902344 4.65625 15.5 4.269531 15.0625 3.933594 C 14.628906 3.59375 14.164062 3.308594 13.671875 3.078125 C 13.179688 2.847656 12.671875 2.671875 12.144531 2.558594 C 11.617188 2.441406 11.082031 2.386719 10.539062 2.394531 C 9.996094 2.398438 9.457031 2.464844 8.917969 2.59375 C 8.378906 2.71875 7.855469 2.902344 7.34375 3.144531 C 6.832031 3.386719 6.34375 3.679688 5.878906 4.03125 C 5.414062 4.378906 4.976562 4.773438 4.574219 5.214844 C 4.171875 5.65625 3.808594 6.132812 3.488281 6.652344 C 3.164062 7.167969 2.886719 7.714844 2.652344 8.289062 C 2.421875 8.859375 2.238281 9.449219 2.109375 10.058594 Z M 2.109375 10.058594 " fill-opacity="1" fill-rule="nonzero"/></g></g></g><g mask="url(#725cdd24f7)"><g transform="matrix(1, 0, 0, 1, 126, 93)"><g clip-path="url(#239c5c2208)"><path fill="#ffffff" d="M 2.40625 4.609375 C 2.25 5.105469 2.183594 5.605469 2.203125 6.113281 C 2.222656 6.625 2.328125 7.101562 2.519531 7.546875 C 2.710938 7.992188 2.976562 8.375 3.3125 8.6875 C 3.648438 9.003906 4.03125 9.230469 4.460938 9.367188 C 4.886719 9.503906 5.332031 9.539062 5.785156 9.476562 C 6.242188 9.414062 6.675781 9.253906 7.089844 9 C 7.503906 8.746094 7.863281 8.417969 8.171875 8.015625 C 8.480469 7.609375 8.714844 7.160156 8.871094 6.664062 C 9.027344 6.171875 9.097656 5.667969 9.078125 5.160156 C 9.058594 4.652344 8.949219 4.171875 8.757812 3.726562 C 8.566406 3.28125 8.300781 2.898438 7.964844 2.585938 C 7.628906 2.269531 7.246094 2.042969 6.820312 1.90625 C 6.390625 1.773438 5.949219 1.734375 5.492188 1.796875 C 5.035156 1.863281 4.601562 2.019531 4.1875 2.273438 C 3.773438 2.527344 3.414062 2.855469 3.105469 3.261719 C 2.796875 3.664062 2.5625 4.113281 2.40625 4.609375 Z M 2.40625 4.609375 " fill-opacity="1" fill-rule="nonzero"/></g></g></g><path fill="#ffffff" d="M 56.726562 91.632812 C 55.175781 90.996094 53.394531 88.867188 52.980469 88.054688 C 52.136719 86.386719 50.902344 84.347656 49.503906 81.722656 C 47.109375 77.21875 40.890625 71.070312 37.3125 73.183594 C 31.605469 76.546875 39.445312 83.222656 39.367188 84.550781 C 39.296875 85.875 35.683594 91.984375 38.707031 98.742188 Z M 56.726562 91.632812 " fill-opacity="1" fill-rule="nonzero"/><path fill="#371a45" d="M 57.296875 90.226562 C 57 90.105469 56.601562 89.839844 56.222656 89.519531 C 55.84375 89.203125 55.476562 88.832031 55.140625 88.445312 C 54.972656 88.25 54.804688 88.046875 54.65625 87.851562 C 54.507812 87.65625 54.375 87.464844 54.3125 87.332031 C 54.03125 86.785156 53.738281 86.253906 53.457031 85.730469 L 51.742188 82.648438 L 50.902344 81.121094 C 50.613281 80.574219 50.277344 80.007812 49.933594 79.488281 C 49.238281 78.4375 48.480469 77.449219 47.652344 76.519531 C 46.824219 75.585938 45.9375 74.703125 44.949219 73.898438 C 43.964844 73.09375 42.890625 72.34375 41.601562 71.796875 C 40.960938 71.523438 40.246094 71.300781 39.453125 71.222656 C 38.671875 71.140625 37.761719 71.222656 36.945312 71.601562 C 36.503906 71.804688 36.230469 72 35.914062 72.203125 C 35.605469 72.441406 35.304688 72.671875 35.023438 72.96875 C 34.460938 73.554688 33.984375 74.339844 33.773438 75.195312 C 33.554688 76.054688 33.597656 76.910156 33.746094 77.652344 C 33.898438 78.402344 34.152344 79.0625 34.441406 79.683594 C 35.023438 80.910156 35.738281 81.953125 36.449219 82.933594 L 37.472656 84.320312 C 37.621094 84.53125 37.761719 84.761719 37.796875 84.832031 C 37.824219 84.875 37.789062 84.8125 37.789062 84.789062 C 37.796875 84.796875 37.753906 84.671875 37.753906 84.59375 C 37.753906 84.550781 37.753906 84.503906 37.753906 84.460938 C 37.761719 84.417969 37.753906 84.453125 37.753906 84.441406 C 37.746094 84.441406 37.746094 84.441406 37.753906 84.441406 C 37.761719 84.433594 37.753906 84.46875 37.746094 84.496094 L 37.71875 84.574219 C 37.597656 85 37.382812 85.601562 37.199219 86.175781 C 37.015625 86.746094 36.828125 87.347656 36.679688 87.957031 C 36.363281 89.175781 36.152344 90.441406 36.105469 91.71875 C 35.992188 94.28125 36.644531 96.921875 38 99.03125 C 38.230469 99.386719 38.707031 99.492188 39.058594 99.261719 C 39.332031 99.085938 39.453125 98.769531 39.394531 98.46875 L 39.382812 98.414062 C 39.15625 97.300781 38.90625 96.242188 38.871094 95.15625 C 38.847656 94.890625 38.835938 94.617188 38.835938 94.351562 C 38.835938 94.085938 38.8125 93.820312 38.847656 93.546875 L 38.882812 92.746094 L 38.980469 91.949219 C 39.121094 90.890625 39.339844 89.832031 39.648438 88.78125 C 39.796875 88.25 39.972656 87.726562 40.167969 87.191406 C 40.351562 86.640625 40.5625 86.148438 40.785156 85.441406 L 40.820312 85.308594 C 40.828125 85.265625 40.847656 85.230469 40.863281 85.140625 C 40.890625 85 40.917969 84.859375 40.933594 84.707031 C 40.933594 84.664062 40.941406 84.65625 40.941406 84.574219 C 40.941406 84.496094 40.941406 84.417969 40.933594 84.335938 C 40.925781 84.1875 40.890625 83.984375 40.863281 83.929688 C 40.8125 83.761719 40.738281 83.570312 40.695312 83.480469 C 40.476562 83.019531 40.289062 82.765625 40.105469 82.492188 C 39.734375 81.960938 39.394531 81.492188 39.058594 81.023438 C 38.386719 80.105469 37.78125 79.195312 37.347656 78.296875 C 36.910156 77.394531 36.722656 76.519531 36.875 75.957031 C 36.945312 75.664062 37.078125 75.40625 37.324219 75.144531 C 37.4375 75.011719 37.597656 74.886719 37.753906 74.753906 C 37.929688 74.640625 38.132812 74.5 38.238281 74.453125 C 38.714844 74.207031 39.523438 74.269531 40.414062 74.640625 C 41.296875 75 42.183594 75.585938 43.019531 76.265625 C 44.695312 77.625 46.199219 79.328125 47.398438 81.148438 C 47.699219 81.609375 47.960938 82.058594 48.226562 82.542969 L 49.082031 84.117188 L 50.796875 87.199219 C 51.078125 87.703125 51.351562 88.207031 51.609375 88.707031 C 51.8125 89.105469 52.023438 89.390625 52.226562 89.664062 C 52.425781 89.9375 52.640625 90.191406 52.859375 90.441406 C 53.289062 90.933594 53.757812 91.402344 54.277344 91.835938 C 54.804688 92.269531 55.378906 92.691406 56.152344 93.027344 C 56.917969 93.355469 57.816406 93 58.144531 92.234375 C 58.46875 91.464844 58.117188 90.5625 57.351562 90.238281 Z M 57.296875 90.226562 " fill-opacity="1" fill-rule="nonzero"/><path fill="#ffffff" d="M 160.855469 177.414062 L 134.363281 198.894531 L 113.675781 195.882812 L 102.734375 194.292969 C 102.734375 194.292969 95.285156 189.089844 93.488281 187.800781 C 91.058594 186.058594 92.949219 183.046875 94.660156 181.539062 C 97.574219 178.960938 100.03125 176.273438 102.15625 173.652344 C 105.582031 169.414062 108.152344 165.324219 110.40625 162.011719 C 112.257812 159.292969 115.707031 158.160156 118.792969 159.28125 C 137.214844 165.996094 155.851562 170.507812 155.851562 170.507812 Z M 160.855469 177.414062 " fill-opacity="1" fill-rule="nonzero"/><path fill="#371a45" d="M 134.355469 200.226562 C 134.664062 200.226562 134.953125 200.121094 135.191406 199.925781 L 161.683594 178.449219 C 162.238281 177.996094 162.34375 177.195312 161.921875 176.621094 L 156.917969 169.714844 C 156.734375 169.457031 156.460938 169.269531 156.152344 169.199219 C 155.96875 169.15625 137.367188 164.625 119.230469 158.019531 C 115.578125 156.6875 111.488281 158.019531 109.28125 161.253906 C 108.785156 161.976562 108.265625 162.746094 107.738281 163.539062 C 104.382812 168.554688 100.207031 174.808594 93.753906 180.53125 C 92.34375 181.777344 90.878906 183.84375 90.976562 185.882812 C 91.039062 187.09375 91.628906 188.128906 92.6875 188.886719 C 94.464844 190.167969 101.644531 195.164062 101.941406 195.386719 C 102.109375 195.5 102.3125 195.582031 102.515625 195.617188 L 134.144531 200.226562 C 134.230469 200.226562 134.292969 200.226562 134.355469 200.226562 Z M 159.023438 177.167969 L 133.964844 197.480469 L 103.238281 193.003906 C 101.90625 192.074219 95.839844 187.835938 94.261719 186.707031 C 93.761719 186.34375 93.679688 186 93.664062 185.742188 C 93.609375 184.769531 94.570312 183.394531 95.53125 182.535156 C 102.25 176.585938 106.53125 170.179688 109.964844 165.03125 C 110.496094 164.246094 111.003906 163.488281 111.488281 162.761719 C 113.003906 160.535156 115.816406 159.628906 118.316406 160.535156 C 134.960938 166.605469 151.988281 170.921875 155.042969 171.683594 Z M 159.023438 177.167969 " fill-opacity="1" fill-rule="nonzero"/><path fill="#371a45" d="M 113.675781 195.871094 L 102.734375 194.28125 C 102.734375 194.28125 95.285156 189.082031 93.488281 187.792969 C 91.628906 186.457031 92.296875 184.390625 93.46875 182.808594 C 93.832031 182.324219 94.253906 181.882812 94.652344 181.53125 C 97.566406 178.949219 100.023438 176.265625 102.144531 173.644531 C 102.242188 175.109375 104.515625 176.804688 107.949219 176.398438 C 109.507812 176.214844 114.582031 170.605469 117.117188 170.382812 C 124.535156 169.730469 117.277344 188.648438 113.675781 195.871094 Z M 113.675781 195.871094 " fill-opacity="0.298" fill-rule="nonzero"/><path fill="#ffffff" d="M 73.636719 142.308594 C 71.742188 143.757812 70.675781 146.167969 70.976562 148.332031 C 74.710938 175.488281 99.203125 186.546875 104.964844 181.46875 C 110.238281 176.8125 107.105469 171.886719 107.105469 171.886719 C 107.105469 171.886719 88.105469 166.710938 81.472656 143.429688 C 80.613281 140.417969 77.175781 139.605469 74.367188 141.761719 Z M 73.636719 142.308594 " fill-opacity="1" fill-rule="nonzero"/><path fill="#371a45" d="M 104.964844 181.460938 C 99.203125 186.539062 74.710938 175.480469 70.976562 148.324219 C 70.683594 146.167969 71.742188 143.757812 73.636719 142.300781 L 74.359375 141.742188 C 75.378906 140.957031 76.480469 140.566406 77.511719 140.53125 C 76.726562 141.796875 76.367188 143.28125 76.550781 144.648438 C 79.75 167.921875 98.191406 179.367188 107.023438 178.96875 C 106.566406 179.796875 105.898438 180.636719 104.964844 181.460938 Z M 104.964844 181.460938 " fill-opacity="0.298" fill-rule="nonzero"/><path fill="#371a45" d="M 101 184.1875 C 103.0625 184.1875 104.769531 183.65625 105.960938 182.605469 C 110.910156 178.246094 109.703125 173.148438 108.382812 171.0625 L 108.0625 170.570312 L 107.5 170.417969 C 107.324219 170.367188 89.234375 165.136719 82.925781 143.015625 C 82.417969 141.222656 81.15625 139.871094 79.464844 139.3125 C 77.546875 138.679688 75.292969 139.136719 73.441406 140.558594 L 72.710938 141.117188 C 70.402344 142.882812 69.101562 145.867188 69.46875 148.550781 C 71.960938 166.71875 83.90625 178.898438 94.632812 182.898438 C 96.976562 183.753906 99.132812 184.1875 101 184.1875 Z M 106.054688 173.148438 C 106.566406 174.296875 107.386719 177.289062 103.960938 180.320312 C 102.601562 181.511719 99.363281 181.398438 95.699219 180.027344 C 85.816406 176.34375 74.808594 165.050781 72.480469 148.121094 C 72.261719 146.511719 73.117188 144.621094 74.5625 143.519531 L 75.292969 142.960938 C 76.339844 142.15625 77.554688 141.867188 78.523438 142.195312 C 79.265625 142.441406 79.785156 143.007812 80.019531 143.84375 C 86.1875 165.507812 102.53125 171.984375 106.054688 173.148438 Z M 106.054688 173.148438 " fill-opacity="1" fill-rule="nonzero"/><path fill="#ffffff" d="M 138.238281 195.484375 C 136.46875 197.613281 134.523438 200.445312 134.523438 200.445312 C 134.523438 200.445312 129.871094 197.269531 129.519531 196.976562 C 128.367188 196.015625 129.484375 192.753906 132.011719 189.699219 C 134.546875 186.644531 137.542969 184.949219 138.695312 185.910156 C 139.542969 186.617188 143.300781 189.125 143.300781 189.125 C 143.300781 189.125 138.917969 194.664062 138.238281 195.484375 Z M 138.238281 195.484375 " fill-opacity="1" fill-rule="nonzero"/><path fill="#ffffff" d="M 136.058594 192.394531 C 135.757812 192.757812 135.476562 193.132812 135.214844 193.519531 C 134.957031 193.902344 134.722656 194.292969 134.511719 194.6875 C 134.304688 195.082031 134.125 195.472656 133.976562 195.859375 C 133.828125 196.246094 133.710938 196.621094 133.628906 196.988281 C 133.542969 197.351562 133.496094 197.699219 133.480469 198.027344 C 133.464844 198.355469 133.484375 198.660156 133.539062 198.941406 C 133.59375 199.222656 133.679688 199.472656 133.800781 199.695312 C 133.921875 199.914062 134.074219 200.101562 134.257812 200.253906 C 134.4375 200.40625 134.648438 200.523438 134.886719 200.601562 C 135.125 200.679688 135.386719 200.722656 135.671875 200.722656 C 135.957031 200.726562 136.261719 200.6875 136.578125 200.613281 C 136.898438 200.539062 137.230469 200.429688 137.574219 200.277344 C 137.914062 200.128906 138.261719 199.945312 138.617188 199.730469 C 138.96875 199.511719 139.320312 199.265625 139.667969 198.988281 C 140.015625 198.710938 140.355469 198.410156 140.6875 198.082031 C 141.019531 197.757812 141.335938 197.410156 141.636719 197.046875 C 141.9375 196.683594 142.21875 196.308594 142.480469 195.925781 C 142.738281 195.539062 142.972656 195.148438 143.179688 194.753906 C 143.390625 194.359375 143.570312 193.96875 143.71875 193.582031 C 143.867188 193.195312 143.984375 192.820312 144.066406 192.453125 C 144.148438 192.089844 144.199219 191.742188 144.214844 191.414062 C 144.230469 191.085938 144.210938 190.78125 144.15625 190.5 C 144.101562 190.21875 144.015625 189.96875 143.894531 189.75 C 143.773438 189.527344 143.621094 189.339844 143.4375 189.1875 C 143.253906 189.035156 143.042969 188.917969 142.804688 188.839844 C 142.566406 188.761719 142.304688 188.722656 142.023438 188.71875 C 141.738281 188.714844 141.433594 188.753906 141.113281 188.828125 C 140.796875 188.902344 140.464844 189.015625 140.121094 189.164062 C 139.777344 189.3125 139.429688 189.496094 139.078125 189.710938 C 138.726562 189.929688 138.375 190.175781 138.027344 190.453125 C 137.679688 190.730469 137.339844 191.03125 137.007812 191.359375 C 136.675781 191.683594 136.359375 192.03125 136.058594 192.394531 Z M 136.058594 192.394531 " fill-opacity="1" fill-rule="nonzero"/><path fill="#ffffff" d="M 160.019531 178.730469 C 157.949219 180.957031 154.671875 184.507812 151.125 188.109375 C 146.050781 193.265625 140.421875 198.546875 137.03125 200.226562 C 131.128906 203.140625 113.585938 198.558594 102.726562 194.28125 C 99.882812 193.160156 98.949219 189.644531 101.210938 187.570312 C 104.910156 184.179688 108.222656 180.726562 110.980469 177.660156 C 113.585938 174.765625 115.683594 172.210938 117.128906 170.382812 C 118.449219 168.714844 120.71875 168.132812 122.683594 168.945312 C 139.78125 176.019531 153.078125 176.628906 158.988281 176.453125 C 160.195312 176.417969 160.839844 177.847656 160.019531 178.730469 Z M 160.019531 178.730469 " fill-opacity="1" fill-rule="nonzero"/><path fill="#371a45" d="M 143.390625 194.582031 C 141.09375 196.683594 138.925781 198.476562 137.171875 199.582031 C 136.757812 199.847656 136.363281 200.078125 135.992188 200.253906 C 130.277344 203.078125 113.285156 198.636719 102.78125 194.496094 C 100.023438 193.410156 99.117188 190 101.308594 187.996094 C 104.894531 184.710938 108.097656 181.363281 110.757812 178.394531 C 110.554688 181.617188 111.375 188.894531 121.714844 193.902344 C 124.394531 195.203125 127.433594 195.554688 130.59375 195.296875 C 130.496094 193.867188 131.332031 191.554688 132.875 189.273438 C 135.023438 186.085938 137.753906 184.171875 138.953125 184.992188 C 139.691406 185.496094 142.5 187.015625 143.417969 187.5 C 143.566406 187.554688 143.707031 187.625 143.839844 187.710938 C 144.695312 188.285156 144.96875 189.539062 144.710938 191.058594 C 144.535156 192.152344 144.085938 193.375 143.390625 194.582031 Z M 143.390625 194.582031 " fill-opacity="0.298" fill-rule="nonzero"/><path fill="#371a45" d="M 138.660156 198.433594 C 139.496094 197.257812 140.078125 196.050781 140.378906 194.953125 C 142.253906 194.292969 144.042969 193.558594 145.699219 192.835938 C 143.375 194.769531 140.949219 196.71875 138.660156 198.433594 Z M 138.660156 198.433594 " fill-opacity="0.298" fill-rule="nonzero"/><path fill="#371a45" d="M 131.578125 202.488281 C 134.039062 202.488281 136.125 202.167969 137.621094 201.425781 C 143.417969 198.566406 154.945312 186.148438 160.496094 180.1875 L 160.996094 179.648438 C 161.738281 178.84375 161.929688 177.6875 161.480469 176.691406 C 161.03125 175.691406 160.035156 175.074219 158.953125 175.109375 C 152.746094 175.304688 139.839844 174.597656 123.203125 167.707031 C 120.695312 166.675781 117.769531 167.425781 116.085938 169.554688 C 113.296875 173.078125 107.527344 179.976562 100.324219 186.582031 C 98.964844 187.816406 98.382812 189.550781 98.710938 191.324219 C 99.0625 193.222656 100.382812 194.796875 102.25 195.527344 C 110.433594 198.75 123.167969 202.488281 131.578125 202.488281 Z M 159.03125 177.785156 L 158.539062 178.351562 C 153.527344 183.746094 141.796875 196.367188 136.441406 199.015625 C 131.507812 201.453125 115.355469 197.804688 103.21875 193.027344 C 102.214844 192.632812 101.511719 191.808594 101.328125 190.828125 C 101.238281 190.335938 101.210938 189.382812 102.109375 188.550781 C 109.457031 181.820312 115.320312 174.800781 118.167969 171.214844 C 119.109375 170.023438 120.753906 169.597656 122.164062 170.179688 C 139.277344 177.265625 152.613281 177.980469 159.03125 177.785156 Z M 159.03125 177.785156 " fill-opacity="1" fill-rule="nonzero"/><path fill="#22a7f0" d="M 138.238281 195.484375 C 136.46875 197.613281 134.523438 200.445312 134.523438 200.445312 C 134.523438 200.445312 129.871094 197.269531 129.519531 196.976562 C 128.367188 196.015625 129.484375 192.753906 132.011719 189.699219 C 134.546875 186.644531 137.542969 184.949219 138.695312 185.910156 C 139.542969 186.617188 143.300781 189.125 143.300781 189.125 C 143.300781 189.125 138.917969 194.664062 138.238281 195.484375 Z M 138.238281 195.484375 " fill-opacity="1" fill-rule="nonzero"/><path fill="#ffffff" d="M 143.300781 189.125 C 143.300781 189.125 138.917969 194.652344 138.238281 195.484375 C 136.46875 197.613281 134.523438 200.445312 134.523438 200.445312 C 134.523438 200.445312 134.433594 200.386719 134.273438 200.28125 C 134.945312 199.371094 135.773438 198.285156 136.554688 197.339844 C 137.234375 196.515625 141.628906 190.980469 141.628906 190.980469 C 141.628906 190.980469 137.867188 188.472656 137.015625 187.765625 C 136.082031 186.980469 133.921875 187.949219 131.792969 189.980469 C 131.871094 189.882812 131.941406 189.796875 132.019531 189.699219 C 134.558594 186.644531 137.550781 184.949219 138.707031 185.910156 C 139.542969 186.617188 143.300781 189.125 143.300781 189.125 Z M 143.300781 189.125 " fill-opacity="0.8" fill-rule="nonzero"/><path fill="#371a45" d="M 137.417969 196.515625 C 135.914062 198.425781 134.523438 200.445312 134.523438 200.445312 C 134.523438 200.445312 129.871094 197.269531 129.519531 196.976562 C 128.367188 196.015625 129.484375 192.753906 132.011719 189.699219 C 132.867188 188.664062 133.773438 187.792969 134.644531 187.121094 C 132.671875 189.859375 131.898438 192.542969 132.917969 193.398438 C 133.210938 193.628906 136.195312 195.679688 137.417969 196.515625 Z M 137.417969 196.515625 " fill-opacity="0.298" fill-rule="nonzero"/><path fill="#371a45" d="M 134.523438 201.558594 C 134.875 201.558594 135.226562 201.390625 135.4375 201.074219 C 135.457031 201.046875 137.382812 198.257812 139.09375 196.191406 C 139.769531 195.367188 144 190.042969 144.175781 189.8125 C 144.367188 189.566406 144.449219 189.257812 144.402344 188.949219 C 144.359375 188.640625 144.183594 188.367188 143.917969 188.1875 C 142.890625 187.5 140.0625 185.59375 139.410156 185.042969 C 137.382812 183.347656 133.710938 185.894531 131.15625 188.976562 C 129.84375 190.554688 128.839844 192.25 128.328125 193.753906 C 127.476562 196.242188 128.257812 197.375 128.804688 197.832031 C 129.167969 198.132812 132.785156 200.613281 133.886719 201.367188 C 134.082031 201.5 134.300781 201.558594 134.523438 201.558594 Z M 141.683594 189.382812 C 140.394531 190.996094 137.878906 194.175781 137.382812 194.769531 C 136.203125 196.191406 134.972656 197.878906 134.238281 198.902344 C 132.320312 197.585938 130.453125 196.296875 130.222656 196.109375 C 129.933594 195.722656 130.46875 193.292969 132.867188 190.414062 C 135.261719 187.527344 137.542969 186.554688 137.984375 186.777344 C 138.597656 187.277344 140.484375 188.570312 141.683594 189.382812 Z M 141.683594 189.382812 " fill-opacity="1" fill-rule="nonzero"/><path fill="#22a7f0" d="M 136.058594 192.394531 C 135.757812 192.757812 135.476562 193.132812 135.214844 193.519531 C 134.957031 193.902344 134.722656 194.292969 134.511719 194.6875 C 134.304688 195.082031 134.125 195.472656 133.976562 195.859375 C 133.828125 196.246094 133.710938 196.621094 133.628906 196.988281 C 133.542969 197.351562 133.496094 197.699219 133.480469 198.027344 C 133.464844 198.355469 133.484375 198.660156 133.539062 198.941406 C 133.59375 199.222656 133.679688 199.472656 133.800781 199.695312 C 133.921875 199.914062 134.074219 200.101562 134.257812 200.253906 C 134.4375 200.40625 134.648438 200.523438 134.886719 200.601562 C 135.125 200.679688 135.386719 200.722656 135.671875 200.722656 C 135.957031 200.726562 136.261719 200.6875 136.578125 200.613281 C 136.898438 200.539062 137.230469 200.429688 137.574219 200.277344 C 137.914062 200.128906 138.261719 199.945312 138.617188 199.730469 C 138.96875 199.511719 139.320312 199.265625 139.667969 198.988281 C 140.015625 198.710938 140.355469 198.410156 140.6875 198.082031 C 141.019531 197.757812 141.335938 197.410156 141.636719 197.046875 C 141.9375 196.683594 142.21875 196.308594 142.480469 195.925781 C 142.738281 195.539062 142.972656 195.148438 143.179688 194.753906 C 143.390625 194.359375 143.570312 193.96875 143.71875 193.582031 C 143.867188 193.195312 143.984375 192.820312 144.066406 192.453125 C 144.148438 192.089844 144.199219 191.742188 144.214844 191.414062 C 144.230469 191.085938 144.210938 190.78125 144.15625 190.5 C 144.101562 190.21875 144.015625 189.96875 143.894531 189.75 C 143.773438 189.527344 143.621094 189.339844 143.4375 189.1875 C 143.253906 189.035156 143.042969 188.917969 142.804688 188.839844 C 142.566406 188.761719 142.304688 188.722656 142.023438 188.71875 C 141.738281 188.714844 141.433594 188.753906 141.113281 188.828125 C 140.796875 188.902344 140.464844 189.015625 140.121094 189.164062 C 139.777344 189.3125 139.429688 189.496094 139.078125 189.710938 C 138.726562 189.929688 138.375 190.175781 138.027344 190.453125 C 137.679688 190.730469 137.339844 191.03125 137.007812 191.359375 C 136.675781 191.683594 136.359375 192.03125 136.058594 192.394531 Z M 136.058594 192.394531 " fill-opacity="1" fill-rule="nonzero"/><path fill="#ffffff" d="M 141.636719 197.054688 C 141.472656 197.257812 141.304688 197.445312 141.136719 197.628906 C 142.722656 195.042969 143.046875 192.453125 141.777344 191.394531 C 140.34375 190.195312 137.359375 191.367188 134.898438 194.027344 C 135.234375 193.480469 135.621094 192.941406 136.0625 192.402344 C 138.597656 189.347656 141.902344 187.90625 143.445312 189.195312 C 144.976562 190.484375 144.175781 194.007812 141.636719 197.054688 Z M 141.636719 197.054688 " fill-opacity="0.8" fill-rule="nonzero"/><path fill="#371a45" d="M 141.417969 197.320312 C 138.917969 200.199219 135.761719 201.515625 134.265625 200.269531 C 132.726562 198.988281 133.535156 195.476562 136.070312 192.417969 C 137.402344 190.820312 138.933594 189.664062 140.316406 189.105469 C 140.246094 189.1875 140.175781 189.273438 140.105469 189.363281 C 137.570312 192.417969 136.765625 195.933594 138.308594 197.222656 C 139.023438 197.824219 140.160156 197.816406 141.417969 197.320312 Z M 141.417969 197.320312 " fill-opacity="0.298" fill-rule="nonzero"/><path fill="#371a45" d="M 135.703125 201.859375 C 137.753906 201.859375 140.335938 200.386719 142.5 197.78125 C 145.523438 194.140625 146.234375 190.078125 144.15625 188.347656 C 142.078125 186.617188 138.230469 188.054688 135.207031 191.695312 C 132.1875 195.34375 131.472656 199.394531 133.554688 201.128906 C 134.144531 201.621094 134.882812 201.859375 135.703125 201.859375 Z M 142.007812 189.859375 C 142.316406 189.859375 142.5625 189.929688 142.722656 190.070312 C 143.503906 190.722656 143.144531 193.496094 140.773438 196.347656 C 138.40625 199.203125 135.753906 200.066406 134.972656 199.414062 C 134.1875 198.761719 134.546875 195.988281 136.917969 193.132812 C 138.792969 190.863281 140.84375 189.859375 142.007812 189.859375 Z M 142.007812 189.859375 " fill-opacity="1" fill-rule="nonzero"/><path fill="#371a45" d="M 115.566406 199.484375 C 115.832031 199.484375 116.097656 199.378906 116.289062 199.175781 L 124.164062 190.910156 C 125.609375 189.390625 125.800781 187.023438 124.621094 185.292969 C 124.023438 184.417969 124.050781 183.261719 124.691406 182.414062 L 132.054688 172.6875 C 132.390625 172.246094 132.300781 171.613281 131.863281 171.277344 C 131.421875 170.941406 130.789062 171.027344 130.453125 171.46875 L 123.089844 181.195312 C 121.925781 182.730469 121.875 184.832031 122.957031 186.421875 C 123.609375 187.375 123.503906 188.675781 122.703125 189.511719 L 114.828125 197.78125 C 114.449219 198.1875 114.457031 198.820312 114.863281 199.203125 C 115.066406 199.394531 115.3125 199.484375 115.566406 199.484375 Z M 115.566406 199.484375 " fill-opacity="1" fill-rule="nonzero"/><path fill="#371a45" d="M 63.199219 199.34375 C 63.957031 199.34375 64.609375 198.777344 64.707031 198.007812 C 64.8125 197.179688 64.222656 196.421875 63.382812 196.3125 C 60.917969 196.003906 55.730469 193.417969 52.320312 187.765625 C 49.425781 182.953125 47.011719 174.421875 52.011719 161.121094 C 52.3125 160.332031 51.917969 159.460938 51.132812 159.160156 C 50.347656 158.867188 49.476562 159.257812 49.175781 160.042969 C 43.742188 174.480469 46.484375 183.941406 49.734375 189.335938 C 53.722656 195.953125 59.859375 198.9375 63.015625 199.324219 C 63.074219 199.34375 63.136719 199.34375 63.199219 199.34375 Z M 63.199219 199.34375 " fill-opacity="1" fill-rule="nonzero"/><path fill="#371a45" d="M 59.304688 134.378906 C 59.492188 134.378906 59.683594 134.34375 59.871094 134.269531 C 68.414062 130.863281 73.96875 123.769531 75.953125 113.773438 C 77.421875 106.355469 76.410156 100.011719 76.367188 99.738281 C 76.234375 98.910156 75.449219 98.351562 74.621094 98.484375 C 73.792969 98.617188 73.238281 99.402344 73.371094 100.234375 C 73.378906 100.3125 74.339844 106.382812 72.957031 113.261719 C 71.152344 122.277344 66.371094 128.390625 58.75 131.4375 C 57.976562 131.746094 57.589844 132.628906 57.90625 133.414062 C 58.125 134.015625 58.699219 134.378906 59.304688 134.378906 Z M 59.304688 134.378906 " fill-opacity="1" fill-rule="nonzero"/><path fill="#371a45" d="M 117.074219 162.761719 C 117.285156 162.507812 119.867188 166.214844 122.113281 167.59375 C 123.273438 168.308594 118.0625 170.542969 118.527344 168.9375 C 119.082031 167.011719 116.863281 163.019531 117.074219 162.761719 Z M 117.074219 162.761719 " fill-opacity="1" fill-rule="nonzero"/></svg>