<svg xmlns="http://www.w3.org/2000/svg" xmlns:xlink="http://www.w3.org/1999/xlink" width="650" zoomAndPan="magnify" viewBox="0 0 487.5 487.499999" height="650" preserveAspectRatio="xMidYMid meet" version="1.0"><defs><clipPath id="f9fd75e8cc"><path d="M 18.820312 134 L 466 134 L 466 270 L 18.820312 270 Z M 18.820312 134 " clip-rule="nonzero"/></clipPath><clipPath id="132f0b0fe0"><path d="M 22 224 L 468.820312 224 L 468.820312 354.222656 L 22 354.222656 Z M 22 224 " clip-rule="nonzero"/></clipPath></defs><g clip-path="url(#f9fd75e8cc)"><path fill="#022c64" d="M 52.1875 269.265625 L 18.820312 253.445312 C 40.984375 206.914062 70.378906 189.710938 91.164062 183.46875 C 115.988281 176.03125 142.878906 179.882812 166.832031 194.339844 C 178.71875 201.511719 195.460938 210.851562 203.484375 209.191406 C 210.898438 207.6875 220.808594 193.289062 227.585938 182.632812 C 233.699219 173.015625 256.683594 141.21875 296.007812 135.613281 C 313.902344 133.070312 341.542969 135.613281 371.628906 162.070312 C 380.328125 169.722656 392.867188 178.445312 403.285156 176.519531 C 416.304688 174.09375 425.992188 155.582031 430.644531 146.675781 C 431.765625 144.410156 432.996094 142.207031 434.339844 140.066406 L 465.136719 160.421875 L 465.210938 160.300781 C 464.90625 160.808594 464.054688 162.429688 463.363281 163.742188 C 456.585938 176.703125 440.710938 207.070312 409.996094 212.769531 C 406.734375 213.378906 403.445312 213.6875 400.125 213.691406 C 383.023438 213.691406 365.265625 205.660156 347.175781 189.71875 C 331.476562 175.890625 316.027344 170 301.1875 172.113281 C 282.347656 174.785156 266.558594 190.082031 258.753906 202.359375 C 250.765625 214.925781 244.347656 223.378906 237.929688 229.769531 C 229.488281 238.195312 220.660156 243.265625 210.964844 245.277344 C 191.683594 249.265625 172.464844 240.8125 147.707031 225.914062 C 132.589844 216.777344 116.707031 214.316406 101.804688 218.75 C 82.261719 224.652344 65.105469 242.105469 52.1875 269.265625 Z M 52.1875 269.265625 " fill-opacity="1" fill-rule="nonzero"/></g><g clip-path="url(#132f0b0fe0)"><path fill="#c197d2" d="M 55.878906 354.082031 L 22.515625 338.261719 C 44.679688 291.730469 74.070312 274.527344 94.859375 268.285156 C 119.671875 260.847656 146.570312 264.699219 170.527344 279.15625 C 190.351562 291.140625 205.515625 296.257812 216.855469 294.828125 C 223.734375 293.988281 234.402344 290.449219 247.644531 269.605469 C 260.074219 250.050781 275.699219 237.335938 294.074219 231.878906 C 316.460938 225.207031 342.53125 229.390625 371.5625 244.316406 C 411.53125 264.855469 421.511719 249.847656 438.050781 224.875 L 468.847656 245.230469 C 456.695312 263.546875 438.605469 290.820312 403.117188 290.820312 C 389.671875 290.820312 373.722656 286.910156 354.65625 277.101562 C 309.46875 253.878906 290.9375 270.269531 278.839844 289.363281 C 258.585938 321.234375 235.511719 331.871094 213.078125 331.871094 C 190.648438 331.871094 169.058594 321.324219 151.429688 310.667969 C 136.285156 301.539062 120.402344 299.078125 105.496094 303.550781 C 85.957031 309.46875 68.796875 326.921875 55.878906 354.082031 Z M 55.878906 354.082031 " fill-opacity="1" fill-rule="nonzero"/></g></svg>